{
	"patcher" : 	{
		"fileversion" : 1,
		"appversion" : 		{
			"major" : 8,
			"minor" : 2,
			"revision" : 2,
			"architecture" : "x64",
			"modernui" : 1
		}
,
		"classnamespace" : "box",
		"rect" : [ 155.0, 356.0, 983.0, 459.0 ],
		"bglocked" : 0,
		"openinpresentation" : 0,
		"default_fontsize" : 12.0,
		"default_fontface" : 0,
		"default_fontname" : "Arial",
		"gridonopen" : 1,
		"gridsize" : [ 15.0, 15.0 ],
		"gridsnaponopen" : 1,
		"objectsnaponopen" : 1,
		"statusbarvisible" : 2,
		"toolbarvisible" : 1,
		"lefttoolbarpinned" : 0,
		"toptoolbarpinned" : 0,
		"righttoolbarpinned" : 0,
		"bottomtoolbarpinned" : 0,
		"toolbars_unpinned_last_save" : 0,
		"tallnewobj" : 0,
		"boxanimatetime" : 200,
		"enablehscroll" : 1,
		"enablevscroll" : 1,
		"devicewidth" : 0.0,
		"description" : "",
		"digest" : "",
		"tags" : "",
		"style" : "",
		"subpatcher_template" : "",
		"assistshowspatchername" : 0,
		"boxes" : [ 			{
				"box" : 				{
					"id" : "obj-15",
					"linecount" : 2,
					"maxclass" : "comment",
					"numinlets" : 1,
					"numoutlets" : 0,
					"patching_rect" : [ 221.0, 12.0, 529.0, 33.0 ],
					"text" : "These db estimates are computed inside display+gaintest (because the implementation is based on meter~ :-/ ); if that patch is open then this patch will output the db estimates in OSC format."
				}

			}
, 			{
				"box" : 				{
					"comment" : "",
					"id" : "obj-12",
					"index" : 0,
					"maxclass" : "outlet",
					"numinlets" : 1,
					"numoutlets" : 0,
					"patching_rect" : [ 441.5, 359.0, 30.0, 30.0 ]
				}

			}
, 			{
				"box" : 				{
					"id" : "obj-11",
					"maxclass" : "toggle",
					"numinlets" : 1,
					"numoutlets" : 1,
					"outlettype" : [ "int" ],
					"parameter_enable" : 0,
					"patching_rect" : [ 98.0, 277.0, 24.0, 24.0 ]
				}

			}
, 			{
				"box" : 				{
					"id" : "obj-6",
					"maxclass" : "newobj",
					"numinlets" : 2,
					"numoutlets" : 1,
					"outlettype" : [ "" ],
					"patching_rect" : [ 136.0, 275.0, 32.0, 22.0 ],
					"text" : "gate"
				}

			}
, 			{
				"box" : 				{
					"id" : "obj-4",
					"linecount" : 2,
					"maxclass" : "comment",
					"numinlets" : 1,
					"numoutlets" : 0,
					"patching_rect" : [ 426.0, 194.5, 61.0, 33.0 ],
					"presentation_linecount" : 2,
					"text" : "List of all 12 gains"
				}

			}
, 			{
				"box" : 				{
					"id" : "obj-2",
					"linecount" : 2,
					"maxclass" : "comment",
					"numinlets" : 1,
					"numoutlets" : 0,
					"patching_rect" : [ 207.0, 166.0, 104.0, 33.0 ],
					"text" : "*One* gain (the ith one): i, gain"
				}

			}
, 			{
				"box" : 				{
					"fontname" : "Arial",
					"fontsize" : 12.0,
					"id" : "obj-101",
					"maxclass" : "newobj",
					"numinlets" : 1,
					"numoutlets" : 1,
					"outlettype" : [ "" ],
					"patching_rect" : [ 771.0, 192.0, 123.0, 22.0 ],
					"text" : "prepend /hear_levels"
				}

			}
, 			{
				"box" : 				{
					"fontname" : "Arial",
					"fontsize" : 12.0,
					"id" : "obj-102",
					"maxclass" : "newobj",
					"numinlets" : 12,
					"numoutlets" : 1,
					"outlettype" : [ "" ],
					"patching_rect" : [ 771.0, 154.0, 163.833327999999995, 22.0 ],
					"text" : "pack f f f f f f f f f f f f"
				}

			}
, 			{
				"box" : 				{
					"fontname" : "Arial",
					"fontsize" : 12.0,
					"id" : "obj-103",
					"maxclass" : "newobj",
					"numinlets" : 13,
					"numoutlets" : 13,
					"outlettype" : [ "", "", "", "", "", "", "", "", "", "", "", "", "" ],
					"patching_rect" : [ 771.0, 120.0, 177.0, 22.0 ],
					"text" : "route 1 2 3 4 5 6 7 8 9 10 11 12"
				}

			}
, 			{
				"box" : 				{
					"fontname" : "Arial",
					"fontsize" : 12.0,
					"id" : "obj-104",
					"maxclass" : "newobj",
					"numinlets" : 0,
					"numoutlets" : 1,
					"outlettype" : [ "" ],
					"patching_rect" : [ 771.0, 86.0, 59.0, 22.0 ],
					"text" : "r hear-db"
				}

			}
, 			{
				"box" : 				{
					"fontname" : "Arial",
					"fontsize" : 12.0,
					"id" : "obj-100",
					"maxclass" : "newobj",
					"numinlets" : 1,
					"numoutlets" : 2,
					"outlettype" : [ "", "" ],
					"patching_rect" : [ 406.0, 319.0, 29.5, 22.0 ],
					"text" : "t l l"
				}

			}
, 			{
				"box" : 				{
					"fontname" : "Arial",
					"fontsize" : 12.0,
					"id" : "obj-91",
					"maxclass" : "newobj",
					"numinlets" : 1,
					"numoutlets" : 1,
					"outlettype" : [ "" ],
					"patching_rect" : [ 334.0, 200.0, 90.0, 22.0 ],
					"text" : "prepend /gains"
				}

			}
, 			{
				"box" : 				{
					"fontname" : "Arial",
					"fontsize" : 12.0,
					"id" : "obj-92",
					"maxclass" : "newobj",
					"numinlets" : 12,
					"numoutlets" : 1,
					"outlettype" : [ "" ],
					"patching_rect" : [ 334.0, 162.0, 163.833327999999995, 22.0 ],
					"text" : "pack f f f f f f f f f f f f"
				}

			}
, 			{
				"box" : 				{
					"fontname" : "Arial",
					"fontsize" : 12.0,
					"id" : "obj-93",
					"maxclass" : "newobj",
					"numinlets" : 13,
					"numoutlets" : 13,
					"outlettype" : [ "", "", "", "", "", "", "", "", "", "", "", "", "" ],
					"patching_rect" : [ 334.0, 128.0, 177.0, 22.0 ],
					"text" : "route 1 2 3 4 5 6 7 8 9 10 11 12"
				}

			}
, 			{
				"box" : 				{
					"fontname" : "Arial",
					"fontsize" : 12.0,
					"id" : "obj-94",
					"maxclass" : "newobj",
					"numinlets" : 0,
					"numoutlets" : 1,
					"outlettype" : [ "" ],
					"patching_rect" : [ 334.0, 92.0, 58.0, 22.0 ],
					"text" : "r gain-db"
				}

			}
, 			{
				"box" : 				{
					"fontname" : "Arial",
					"fontsize" : 12.0,
					"id" : "obj-95",
					"maxclass" : "newobj",
					"numinlets" : 1,
					"numoutlets" : 1,
					"outlettype" : [ "" ],
					"patching_rect" : [ 558.0, 192.0, 117.0, 22.0 ],
					"text" : "prepend /say_levels"
				}

			}
, 			{
				"box" : 				{
					"fontname" : "Arial",
					"fontsize" : 12.0,
					"id" : "obj-96",
					"maxclass" : "newobj",
					"numinlets" : 12,
					"numoutlets" : 1,
					"outlettype" : [ "" ],
					"patching_rect" : [ 558.0, 154.0, 163.833327999999995, 22.0 ],
					"text" : "pack f f f f f f f f f f f f"
				}

			}
, 			{
				"box" : 				{
					"fontname" : "Arial",
					"fontsize" : 12.0,
					"id" : "obj-97",
					"maxclass" : "newobj",
					"numinlets" : 13,
					"numoutlets" : 13,
					"outlettype" : [ "", "", "", "", "", "", "", "", "", "", "", "", "" ],
					"patching_rect" : [ 558.0, 120.0, 177.0, 22.0 ],
					"text" : "route 1 2 3 4 5 6 7 8 9 10 11 12"
				}

			}
, 			{
				"box" : 				{
					"fontname" : "Arial",
					"fontsize" : 12.0,
					"id" : "obj-98",
					"maxclass" : "newobj",
					"numinlets" : 0,
					"numoutlets" : 1,
					"outlettype" : [ "" ],
					"patching_rect" : [ 558.0, 86.0, 54.0, 22.0 ],
					"text" : "r say-db"
				}

			}
, 			{
				"box" : 				{
					"fontname" : "Arial",
					"fontsize" : 12.0,
					"id" : "obj-44",
					"maxclass" : "newobj",
					"numinlets" : 0,
					"numoutlets" : 1,
					"outlettype" : [ "" ],
					"patching_rect" : [ 190.5, 92.0, 58.0, 22.0 ],
					"text" : "r gain-db"
				}

			}
, 			{
				"box" : 				{
					"fontname" : "Arial",
					"fontsize" : 12.0,
					"id" : "obj-39",
					"maxclass" : "newobj",
					"numinlets" : 0,
					"numoutlets" : 1,
					"outlettype" : [ "" ],
					"patching_rect" : [ 48.5, 92.0, 54.0, 22.0 ],
					"text" : "r say-db"
				}

			}
, 			{
				"box" : 				{
					"fontname" : "Arial",
					"fontsize" : 12.0,
					"id" : "obj-14",
					"maxclass" : "newobj",
					"numinlets" : 1,
					"numoutlets" : 1,
					"outlettype" : [ "" ],
					"patching_rect" : [ 190.5, 136.0, 113.0, 22.0 ],
					"text" : "prepend /gain_i_db"
				}

			}
, 			{
				"box" : 				{
					"fontname" : "Arial",
					"fontsize" : 12.0,
					"id" : "obj-10",
					"maxclass" : "newobj",
					"numinlets" : 1,
					"numoutlets" : 1,
					"outlettype" : [ "" ],
					"patching_rect" : [ 48.5, 136.0, 109.0, 22.0 ],
					"text" : "prepend /say_i_db"
				}

			}
, 			{
				"box" : 				{
					"fontname" : "Arial",
					"fontsize" : 12.0,
					"id" : "obj-8",
					"maxclass" : "newobj",
					"numinlets" : 1,
					"numoutlets" : 0,
					"patching_rect" : [ 391.0, 399.0, 189.0, 22.0 ],
					"text" : "print db-estimates2OSC-message"
				}

			}
, 			{
				"box" : 				{
					"id" : "obj-7",
					"maxclass" : "toggle",
					"numinlets" : 1,
					"numoutlets" : 1,
					"outlettype" : [ "int" ],
					"parameter_enable" : 0,
					"patching_rect" : [ 372.0, 369.0, 20.0, 20.0 ]
				}

			}
, 			{
				"box" : 				{
					"fontname" : "Arial",
					"fontsize" : 12.0,
					"id" : "obj-5",
					"maxclass" : "newobj",
					"numinlets" : 2,
					"numoutlets" : 1,
					"outlettype" : [ "" ],
					"patching_rect" : [ 391.0, 369.0, 34.0, 22.0 ],
					"text" : "gate"
				}

			}
 ],
		"lines" : [ 			{
				"patchline" : 				{
					"destination" : [ "obj-6", 1 ],
					"source" : [ "obj-10", 0 ]
				}

			}
, 			{
				"patchline" : 				{
					"destination" : [ "obj-12", 0 ],
					"source" : [ "obj-100", 1 ]
				}

			}
, 			{
				"patchline" : 				{
					"destination" : [ "obj-5", 1 ],
					"source" : [ "obj-100", 0 ]
				}

			}
, 			{
				"patchline" : 				{
					"destination" : [ "obj-100", 0 ],
					"source" : [ "obj-101", 0 ]
				}

			}
, 			{
				"patchline" : 				{
					"destination" : [ "obj-101", 0 ],
					"source" : [ "obj-102", 0 ]
				}

			}
, 			{
				"patchline" : 				{
					"destination" : [ "obj-102", 11 ],
					"source" : [ "obj-103", 11 ]
				}

			}
, 			{
				"patchline" : 				{
					"destination" : [ "obj-102", 10 ],
					"source" : [ "obj-103", 10 ]
				}

			}
, 			{
				"patchline" : 				{
					"destination" : [ "obj-102", 9 ],
					"source" : [ "obj-103", 9 ]
				}

			}
, 			{
				"patchline" : 				{
					"destination" : [ "obj-102", 8 ],
					"source" : [ "obj-103", 8 ]
				}

			}
, 			{
				"patchline" : 				{
					"destination" : [ "obj-102", 7 ],
					"source" : [ "obj-103", 7 ]
				}

			}
, 			{
				"patchline" : 				{
					"destination" : [ "obj-102", 6 ],
					"source" : [ "obj-103", 6 ]
				}

			}
, 			{
				"patchline" : 				{
					"destination" : [ "obj-102", 5 ],
					"source" : [ "obj-103", 5 ]
				}

			}
, 			{
				"patchline" : 				{
					"destination" : [ "obj-102", 4 ],
					"source" : [ "obj-103", 4 ]
				}

			}
, 			{
				"patchline" : 				{
					"destination" : [ "obj-102", 3 ],
					"source" : [ "obj-103", 3 ]
				}

			}
, 			{
				"patchline" : 				{
					"destination" : [ "obj-102", 2 ],
					"source" : [ "obj-103", 2 ]
				}

			}
, 			{
				"patchline" : 				{
					"destination" : [ "obj-102", 1 ],
					"source" : [ "obj-103", 1 ]
				}

			}
, 			{
				"patchline" : 				{
					"destination" : [ "obj-102", 0 ],
					"source" : [ "obj-103", 0 ]
				}

			}
, 			{
				"patchline" : 				{
					"destination" : [ "obj-103", 0 ],
					"source" : [ "obj-104", 0 ]
				}

			}
, 			{
				"patchline" : 				{
					"destination" : [ "obj-6", 0 ],
					"source" : [ "obj-11", 0 ]
				}

			}
, 			{
				"patchline" : 				{
					"destination" : [ "obj-6", 1 ],
					"source" : [ "obj-14", 0 ]
				}

			}
, 			{
				"patchline" : 				{
					"destination" : [ "obj-10", 0 ],
					"source" : [ "obj-39", 0 ]
				}

			}
, 			{
				"patchline" : 				{
					"destination" : [ "obj-14", 0 ],
					"source" : [ "obj-44", 0 ]
				}

			}
, 			{
				"patchline" : 				{
					"destination" : [ "obj-8", 0 ],
					"source" : [ "obj-5", 0 ]
				}

			}
, 			{
				"patchline" : 				{
					"destination" : [ "obj-100", 0 ],
					"source" : [ "obj-6", 0 ]
				}

			}
, 			{
				"patchline" : 				{
					"destination" : [ "obj-5", 0 ],
					"source" : [ "obj-7", 0 ]
				}

			}
, 			{
				"patchline" : 				{
					"destination" : [ "obj-100", 0 ],
					"source" : [ "obj-91", 0 ]
				}

			}
, 			{
				"patchline" : 				{
					"destination" : [ "obj-91", 0 ],
					"source" : [ "obj-92", 0 ]
				}

			}
, 			{
				"patchline" : 				{
					"destination" : [ "obj-92", 11 ],
					"source" : [ "obj-93", 11 ]
				}

			}
, 			{
				"patchline" : 				{
					"destination" : [ "obj-92", 10 ],
					"source" : [ "obj-93", 10 ]
				}

			}
, 			{
				"patchline" : 				{
					"destination" : [ "obj-92", 9 ],
					"source" : [ "obj-93", 9 ]
				}

			}
, 			{
				"patchline" : 				{
					"destination" : [ "obj-92", 8 ],
					"source" : [ "obj-93", 8 ]
				}

			}
, 			{
				"patchline" : 				{
					"destination" : [ "obj-92", 7 ],
					"source" : [ "obj-93", 7 ]
				}

			}
, 			{
				"patchline" : 				{
					"destination" : [ "obj-92", 6 ],
					"source" : [ "obj-93", 6 ]
				}

			}
, 			{
				"patchline" : 				{
					"destination" : [ "obj-92", 5 ],
					"source" : [ "obj-93", 5 ]
				}

			}
, 			{
				"patchline" : 				{
					"destination" : [ "obj-92", 4 ],
					"source" : [ "obj-93", 4 ]
				}

			}
, 			{
				"patchline" : 				{
					"destination" : [ "obj-92", 3 ],
					"source" : [ "obj-93", 3 ]
				}

			}
, 			{
				"patchline" : 				{
					"destination" : [ "obj-92", 2 ],
					"source" : [ "obj-93", 2 ]
				}

			}
, 			{
				"patchline" : 				{
					"destination" : [ "obj-92", 1 ],
					"source" : [ "obj-93", 1 ]
				}

			}
, 			{
				"patchline" : 				{
					"destination" : [ "obj-92", 0 ],
					"source" : [ "obj-93", 0 ]
				}

			}
, 			{
				"patchline" : 				{
					"destination" : [ "obj-93", 0 ],
					"source" : [ "obj-94", 0 ]
				}

			}
, 			{
				"patchline" : 				{
					"destination" : [ "obj-100", 0 ],
					"source" : [ "obj-95", 0 ]
				}

			}
, 			{
				"patchline" : 				{
					"destination" : [ "obj-95", 0 ],
					"source" : [ "obj-96", 0 ]
				}

			}
, 			{
				"patchline" : 				{
					"destination" : [ "obj-96", 11 ],
					"source" : [ "obj-97", 11 ]
				}

			}
, 			{
				"patchline" : 				{
					"destination" : [ "obj-96", 10 ],
					"source" : [ "obj-97", 10 ]
				}

			}
, 			{
				"patchline" : 				{
					"destination" : [ "obj-96", 9 ],
					"source" : [ "obj-97", 9 ]
				}

			}
, 			{
				"patchline" : 				{
					"destination" : [ "obj-96", 8 ],
					"source" : [ "obj-97", 8 ]
				}

			}
, 			{
				"patchline" : 				{
					"destination" : [ "obj-96", 7 ],
					"source" : [ "obj-97", 7 ]
				}

			}
, 			{
				"patchline" : 				{
					"destination" : [ "obj-96", 6 ],
					"source" : [ "obj-97", 6 ]
				}

			}
, 			{
				"patchline" : 				{
					"destination" : [ "obj-96", 5 ],
					"source" : [ "obj-97", 5 ]
				}

			}
, 			{
				"patchline" : 				{
					"destination" : [ "obj-96", 4 ],
					"source" : [ "obj-97", 4 ]
				}

			}
, 			{
				"patchline" : 				{
					"destination" : [ "obj-96", 3 ],
					"source" : [ "obj-97", 3 ]
				}

			}
, 			{
				"patchline" : 				{
					"destination" : [ "obj-96", 2 ],
					"source" : [ "obj-97", 2 ]
				}

			}
, 			{
				"patchline" : 				{
					"destination" : [ "obj-96", 1 ],
					"source" : [ "obj-97", 1 ]
				}

			}
, 			{
				"patchline" : 				{
					"destination" : [ "obj-96", 0 ],
					"source" : [ "obj-97", 0 ]
				}

			}
, 			{
				"patchline" : 				{
					"destination" : [ "obj-97", 0 ],
					"source" : [ "obj-98", 0 ]
				}

			}
 ],
		"dependency_cache" : [  ],
		"autosave" : 0
	}

}
