#N canvas 399 51 866 691 10;
#X obj 347 237 *~ 0;
#X obj 371 147 hsl 128 15 0 127 0 0 empty empty empty -2 -8 0 10 -262144
-1 -1 10400 1;
#X obj 368 206 dbtorms;
#X obj 347 77 adc~ 1;
#X obj 74 471 dac~ 1;
#X obj 347 491 vcf~ 1;
#X obj 271 526 vu 15 120 empty empty -1 -8 0 10 -66577 -1 1 0;
#X obj 270 450 env~;
#X obj 209 528 vu 15 120 empty empty -1 -8 0 10 -66577 -1 1 0;
#X obj 208 464 env~;
#X obj 368 174 * 0.7874;
#X obj 73 201 vd~ foo;
#X obj 347 520 delwrite~ foo 1200;
#X obj 74 435 *~ 0;
#X obj 97 268 hsl 128 15 0 127 0 0 empty empty empty -2 -8 0 10 -262144
-1 -1 10000 1;
#X obj 94 293 / 127;
#X obj 73 173 line~;
#X floatatom 73 123 5 0 0 0 - - -, f 5;
#X msg 73 146 \$1 333;
#X obj 363 458 line~;
#X msg 363 430 \$1 333;
#X obj 363 400 pow 2;
#X obj 366 342 hsl 128 15 0 127 0 0 empty empty empty -2 -8 0 10 -262144
-1 -1 12700 1;
#X obj 363 371 * 0.7;
#X obj 347 266 hip~ 1;
#X msg 532 228 \$1 333;
#X obj 532 198 pow 2;
#X obj 535 140 hsl 128 15 0 127 0 0 empty empty empty -2 -8 0 10 -262144
-1 -1 100 1;
#X obj 532 256 line;
#X obj 532 169 * 0.7;
#X obj 532 285 + 1;
#X floatatom 417 364 9 0 0 0 - - -, f 9;
#X floatatom 588 160 9 0 0 0 - - -, f 9;
#X text 378 131 input gain control;
#X text 540 122 highpass filter frequency;
#X text 369 327 lowpass filter frequency;
#X text 99 251 output gain control;
#X text 110 120 delay time control;
#X obj 208 494 - 88;
#X obj 270 485 - 88;
#X obj 218 42 loadbang;
#X msg 73 95 333;
#X msg 94 230 100;
#X msg 368 111 100;
#X msg 364 304 7900;
#X msg 530 84 1;
#X obj 14 13 loadbang;
#X msg 14 38 \; pd dsp 1;
#X obj 134 361 line~;
#X obj 134 405 *~;
#X msg 134 336 1 \, 0 150;
#X obj 149 382 noise~;
#X text 200 653 output;
#X text 264 650 input;
#X text 127 319 make a noise;
#X connect 0 0 24 0;
#X connect 1 0 10 0;
#X connect 2 0 0 1;
#X connect 3 0 0 0;
#X connect 3 0 7 0;
#X connect 5 0 12 0;
#X connect 7 0 39 0;
#X connect 9 0 38 0;
#X connect 10 0 2 0;
#X connect 11 0 13 0;
#X connect 13 0 4 0;
#X connect 13 0 9 0;
#X connect 14 0 15 0;
#X connect 15 0 13 1;
#X connect 16 0 11 0;
#X connect 17 0 18 0;
#X connect 18 0 16 0;
#X connect 19 0 5 1;
#X connect 20 0 19 0;
#X connect 21 0 20 0;
#X connect 21 0 31 0;
#X connect 22 0 23 0;
#X connect 23 0 21 0;
#X connect 24 0 5 0;
#X connect 25 0 28 0;
#X connect 26 0 25 0;
#X connect 26 0 32 0;
#X connect 27 0 29 0;
#X connect 28 0 30 0;
#X connect 29 0 26 0;
#X connect 30 0 24 1;
#X connect 38 0 8 0;
#X connect 39 0 6 0;
#X connect 40 0 41 0;
#X connect 40 0 42 0;
#X connect 40 0 43 0;
#X connect 40 0 44 0;
#X connect 40 0 45 0;
#X connect 41 0 17 0;
#X connect 42 0 14 0;
#X connect 43 0 1 0;
#X connect 44 0 22 0;
#X connect 45 0 27 0;
#X connect 46 0 47 0;
#X connect 48 0 49 0;
#X connect 49 0 13 0;
#X connect 50 0 48 0;
#X connect 51 0 49 1;
