{
	"patcher" : 	{
		"fileversion" : 1,
		"appversion" : 		{
			"major" : 8,
			"minor" : 6,
			"revision" : 4,
			"architecture" : "x64",
			"modernui" : 1
		}
,
		"classnamespace" : "box",
		"rect" : [ 59.0, 119.0, 724.0, 408.0 ],
		"bglocked" : 0,
		"openinpresentation" : 0,
		"default_fontsize" : 12.0,
		"default_fontface" : 0,
		"default_fontname" : "Arial",
		"gridonopen" : 1,
		"gridsize" : [ 15.0, 15.0 ],
		"gridsnaponopen" : 1,
		"objectsnaponopen" : 1,
		"statusbarvisible" : 2,
		"toolbarvisible" : 1,
		"lefttoolbarpinned" : 0,
		"toptoolbarpinned" : 0,
		"righttoolbarpinned" : 0,
		"bottomtoolbarpinned" : 0,
		"toolbars_unpinned_last_save" : 0,
		"tallnewobj" : 0,
		"boxanimatetime" : 200,
		"enablehscroll" : 1,
		"enablevscroll" : 1,
		"devicewidth" : 0.0,
		"description" : "",
		"digest" : "",
		"tags" : "",
		"style" : "",
		"subpatcher_template" : "",
		"assistshowspatchername" : 0,
		"boxes" : [ 			{
				"box" : 				{
					"bubble" : 1,
					"bubbleside" : 3,
					"id" : "obj-6",
					"linecount" : 3,
					"maxclass" : "comment",
					"numinlets" : 1,
					"numoutlets" : 0,
					"patching_rect" : [ 400.0, 292.0, 160.0, 51.0 ],
					"text" : "Open this window to see the graph visualization of the topologies"
				}

			}
, 			{
				"box" : 				{
					"bubble" : 1,
					"bubbleside" : 3,
					"id" : "obj-17",
					"linecount" : 2,
					"maxclass" : "comment",
					"numinlets" : 1,
					"numoutlets" : 0,
					"patching_rect" : [ 393.0, 81.0, 174.0, 37.0 ],
					"text" : "Certain QWERTY keys can recall matrix topologies"
				}

			}
, 			{
				"box" : 				{
					"id" : "obj-18",
					"maxclass" : "message",
					"numinlets" : 2,
					"numoutlets" : 1,
					"outlettype" : [ "" ],
					"patching_rect" : [ 579.0, 125.0, 50.0, 22.0 ],
					"text" : "z"
				}

			}
, 			{
				"box" : 				{
					"id" : "obj-19",
					"maxclass" : "newobj",
					"numinlets" : 0,
					"numoutlets" : 1,
					"outlettype" : [ "" ],
					"patcher" : 					{
						"fileversion" : 1,
						"appversion" : 						{
							"major" : 8,
							"minor" : 6,
							"revision" : 4,
							"architecture" : "x64",
							"modernui" : 1
						}
,
						"classnamespace" : "box",
						"rect" : [ 84.0, 144.0, 640.0, 480.0 ],
						"bglocked" : 0,
						"openinpresentation" : 0,
						"default_fontsize" : 12.0,
						"default_fontface" : 0,
						"default_fontname" : "Arial",
						"gridonopen" : 1,
						"gridsize" : [ 15.0, 15.0 ],
						"gridsnaponopen" : 1,
						"objectsnaponopen" : 1,
						"statusbarvisible" : 2,
						"toolbarvisible" : 1,
						"lefttoolbarpinned" : 0,
						"toptoolbarpinned" : 0,
						"righttoolbarpinned" : 0,
						"bottomtoolbarpinned" : 0,
						"toolbars_unpinned_last_save" : 0,
						"tallnewobj" : 0,
						"boxanimatetime" : 200,
						"enablehscroll" : 1,
						"enablevscroll" : 1,
						"devicewidth" : 0.0,
						"description" : "",
						"digest" : "",
						"tags" : "",
						"style" : "",
						"subpatcher_template" : "",
						"assistshowspatchername" : 0,
						"boxes" : [ 							{
								"box" : 								{
									"comment" : "",
									"id" : "obj-2",
									"index" : 1,
									"maxclass" : "outlet",
									"numinlets" : 1,
									"numoutlets" : 0,
									"patching_rect" : [ 194.5, 158.0, 30.0, 30.0 ]
								}

							}
, 							{
								"box" : 								{
									"fontname" : "Arial",
									"fontsize" : 12.0,
									"id" : "obj-39",
									"linecount" : 4,
									"maxclass" : "message",
									"numinlets" : 2,
									"numoutlets" : 1,
									"outlettype" : [ "" ],
									"patching_rect" : [ 93.0, 153.300293000000011, 93.0, 62.0 ],
									"text" : ";\rmatrix clear;\rpreset-name no-connections"
								}

							}
, 							{
								"box" : 								{
									"id" : "obj-38",
									"maxclass" : "newobj",
									"numinlets" : 3,
									"numoutlets" : 3,
									"outlettype" : [ "bang", "bang", "" ],
									"patching_rect" : [ 93.0, 97.5, 109.0, 22.0 ],
									"text" : "sel esc backspace"
								}

							}
, 							{
								"box" : 								{
									"id" : "obj-19",
									"maxclass" : "newobj",
									"numinlets" : 0,
									"numoutlets" : 1,
									"outlettype" : [ "" ],
									"patching_rect" : [ 92.5, 33.300293000000011, 89.0, 22.0 ],
									"text" : "key-nicenames"
								}

							}
, 							{
								"box" : 								{
									"id" : "obj-15",
									"maxclass" : "message",
									"numinlets" : 2,
									"numoutlets" : 1,
									"outlettype" : [ "" ],
									"patching_rect" : [ 156.5, 64.300293000000011, 68.0, 22.0 ],
									"text" : "esc"
								}

							}
 ],
						"lines" : [ 							{
								"patchline" : 								{
									"destination" : [ "obj-15", 1 ],
									"order" : 0,
									"source" : [ "obj-19", 0 ]
								}

							}
, 							{
								"patchline" : 								{
									"destination" : [ "obj-38", 0 ],
									"order" : 1,
									"source" : [ "obj-19", 0 ]
								}

							}
, 							{
								"patchline" : 								{
									"destination" : [ "obj-2", 0 ],
									"source" : [ "obj-38", 2 ]
								}

							}
, 							{
								"patchline" : 								{
									"destination" : [ "obj-39", 0 ],
									"source" : [ "obj-38", 1 ]
								}

							}
, 							{
								"patchline" : 								{
									"destination" : [ "obj-39", 0 ],
									"source" : [ "obj-38", 0 ]
								}

							}
 ]
					}
,
					"patching_rect" : [ 562.0, 89.0, 91.0, 22.0 ],
					"saved_object_attributes" : 					{
						"description" : "",
						"digest" : "",
						"globalpatchername" : "",
						"tags" : ""
					}
,
					"text" : "p recall-presets"
				}

			}
, 			{
				"box" : 				{
					"bubble" : 1,
					"bubbleside" : 3,
					"id" : "obj-74",
					"linecount" : 3,
					"maxclass" : "comment",
					"numinlets" : 1,
					"numoutlets" : 0,
					"patching_rect" : [ 393.0, 145.0, 171.0, 51.0 ],
					"text" : "Historical topologies and strategies for selecting them during performance"
				}

			}
, 			{
				"box" : 				{
					"fontname" : "Arial",
					"fontsize" : 12.0,
					"id" : "obj-45",
					"maxclass" : "newobj",
					"numinlets" : 1,
					"numoutlets" : 0,
					"patching_rect" : [ 562.0, 160.0, 101.0, 22.0 ],
					"text" : "matrix-presets 12"
				}

			}
, 			{
				"box" : 				{
					"id" : "obj-5",
					"linecount" : 2,
					"maxclass" : "comment",
					"numinlets" : 1,
					"numoutlets" : 0,
					"patching_rect" : [ 71.0, 341.0, 245.0, 33.0 ],
					"text" : "Clicking on any dot makes that row's \"hear\" signal include that column's \"say\" signal"
				}

			}
, 			{
				"box" : 				{
					"id" : "obj-3",
					"linecount" : 7,
					"maxclass" : "comment",
					"numinlets" : 1,
					"numoutlets" : 0,
					"patching_rect" : [ 4.0, 82.0, 58.0, 100.0 ],
					"text" : "The 12 \"hear\" signals\n  ||\n  ||\n  ||\n  V"
				}

			}
, 			{
				"box" : 				{
					"id" : "obj-2",
					"maxclass" : "comment",
					"numinlets" : 1,
					"numoutlets" : 0,
					"patching_rect" : [ 112.0, 52.0, 162.0, 20.0 ],
					"text" : "The 12 \"say\" signals =====>"
				}

			}
, 			{
				"box" : 				{
					"id" : "obj-4",
					"maxclass" : "message",
					"numinlets" : 2,
					"numoutlets" : 1,
					"outlettype" : [ "" ],
					"patching_rect" : [ 71.0, 21.0, 36.0, 22.0 ],
					"text" : "clear"
				}

			}
, 			{
				"box" : 				{
					"bgmode" : 0,
					"border" : 0,
					"clickthrough" : 0,
					"enablehscroll" : 0,
					"enablevscroll" : 0,
					"id" : "obj-10",
					"lockeddragscroll" : 0,
					"lockedsize" : 0,
					"maxclass" : "bpatcher",
					"name" : "multi-matrixctrl.maxpat",
					"numinlets" : 1,
					"numoutlets" : 0,
					"offset" : [ 0.0, 0.0 ],
					"patching_rect" : [ 71.0, 77.0, 260.0, 256.0 ],
					"viewvisibility" : 1
				}

			}
, 			{
				"box" : 				{
					"fontname" : "Arial",
					"fontsize" : 20.0,
					"id" : "obj-36",
					"maxclass" : "newobj",
					"numinlets" : 1,
					"numoutlets" : 0,
					"patcher" : 					{
						"fileversion" : 1,
						"appversion" : 						{
							"major" : 8,
							"minor" : 6,
							"revision" : 4,
							"architecture" : "x64",
							"modernui" : 1
						}
,
						"classnamespace" : "box",
						"rect" : [ 532.0, 132.0, 1166.0, 734.0 ],
						"bglocked" : 0,
						"openinpresentation" : 1,
						"default_fontsize" : 12.0,
						"default_fontface" : 0,
						"default_fontname" : "Arial",
						"gridonopen" : 1,
						"gridsize" : [ 15.0, 15.0 ],
						"gridsnaponopen" : 1,
						"objectsnaponopen" : 1,
						"statusbarvisible" : 2,
						"toolbarvisible" : 1,
						"lefttoolbarpinned" : 0,
						"toptoolbarpinned" : 0,
						"righttoolbarpinned" : 0,
						"bottomtoolbarpinned" : 0,
						"toolbars_unpinned_last_save" : 0,
						"tallnewobj" : 0,
						"boxanimatetime" : 200,
						"enablehscroll" : 1,
						"enablevscroll" : 1,
						"devicewidth" : 0.0,
						"description" : "",
						"digest" : "",
						"tags" : "",
						"style" : "",
						"subpatcher_template" : "",
						"assistshowspatchername" : 0,
						"visible" : 1,
						"boxes" : [ 							{
								"box" : 								{
									"id" : "obj-22",
									"maxclass" : "newobj",
									"numinlets" : 2,
									"numoutlets" : 1,
									"outlettype" : [ "bang" ],
									"patching_rect" : [ 1986.0, 348.849902534113085, 67.0, 22.0 ],
									"text" : "delay 1000"
								}

							}
, 							{
								"box" : 								{
									"id" : "obj-21",
									"maxclass" : "newobj",
									"numinlets" : 1,
									"numoutlets" : 1,
									"outlettype" : [ "bang" ],
									"patching_rect" : [ 1986.0, 323.0, 58.0, 22.0 ],
									"text" : "loadbang"
								}

							}
, 							{
								"box" : 								{
									"id" : "obj-20",
									"maxclass" : "message",
									"numinlets" : 2,
									"numoutlets" : 1,
									"outlettype" : [ "" ],
									"patching_rect" : [ 1986.0, 374.699805068226169, 33.0, 22.0 ],
									"text" : "front"
								}

							}
, 							{
								"box" : 								{
									"id" : "obj-18",
									"maxclass" : "newobj",
									"numinlets" : 1,
									"numoutlets" : 2,
									"outlettype" : [ "", "" ],
									"patching_rect" : [ 1986.0, 400.549707602339254, 67.0, 22.0 ],
									"save" : [ "#N", "thispatcher", ";", "#Q", "end", ";" ],
									"text" : "thispatcher"
								}

							}
, 							{
								"box" : 								{
									"id" : "obj-14",
									"maxclass" : "newobj",
									"numinlets" : 1,
									"numoutlets" : 1,
									"outlettype" : [ "" ],
									"patching_rect" : [ 1171.0, -50.5, 56.0, 22.0 ],
									"text" : "deferlow"
								}

							}
, 							{
								"box" : 								{
									"fontname" : "Baskerville",
									"fontsize" : 24.0,
									"id" : "obj-15",
									"maxclass" : "comment",
									"numinlets" : 1,
									"numoutlets" : 0,
									"patching_rect" : [ 1303.149902000000111, 733.0, 419.0, 34.0 ],
									"presentation" : 1,
									"presentation_rect" : [ 793.5, 597.0, 225.0, 34.0 ],
									"text" : "Topology preset name",
									"textcolor" : [ 1.0, 1.0, 1.0, 1.0 ]
								}

							}
, 							{
								"box" : 								{
									"id" : "obj-46",
									"maxclass" : "newobj",
									"numinlets" : 1,
									"numoutlets" : 1,
									"outlettype" : [ "" ],
									"patcher" : 									{
										"fileversion" : 1,
										"appversion" : 										{
											"major" : 8,
											"minor" : 6,
											"revision" : 4,
											"architecture" : "x64",
											"modernui" : 1
										}
,
										"classnamespace" : "box",
										"rect" : [ 59.0, 103.0, 640.0, 480.0 ],
										"bglocked" : 0,
										"openinpresentation" : 0,
										"default_fontsize" : 12.0,
										"default_fontface" : 0,
										"default_fontname" : "Arial",
										"gridonopen" : 1,
										"gridsize" : [ 15.0, 15.0 ],
										"gridsnaponopen" : 1,
										"objectsnaponopen" : 1,
										"statusbarvisible" : 2,
										"toolbarvisible" : 1,
										"lefttoolbarpinned" : 0,
										"toptoolbarpinned" : 0,
										"righttoolbarpinned" : 0,
										"bottomtoolbarpinned" : 0,
										"toolbars_unpinned_last_save" : 0,
										"tallnewobj" : 0,
										"boxanimatetime" : 200,
										"enablehscroll" : 1,
										"enablevscroll" : 1,
										"devicewidth" : 0.0,
										"description" : "",
										"digest" : "",
										"tags" : "",
										"style" : "",
										"subpatcher_template" : "",
										"assistshowspatchername" : 0,
										"boxes" : [ 											{
												"box" : 												{
													"id" : "obj-5",
													"maxclass" : "number",
													"numinlets" : 1,
													"numoutlets" : 2,
													"outlettype" : [ "", "bang" ],
													"parameter_enable" : 0,
													"patching_rect" : [ 120.5, 295.0, 50.0, 22.0 ]
												}

											}
, 											{
												"box" : 												{
													"id" : "obj-3",
													"maxclass" : "newobj",
													"numinlets" : 2,
													"numoutlets" : 2,
													"outlettype" : [ "", "" ],
													"patching_rect" : [ 120.5, 257.0, 69.0, 22.0 ],
													"text" : "zl 4096 len"
												}

											}
, 											{
												"box" : 												{
													"id" : "obj-38",
													"maxclass" : "newobj",
													"numinlets" : 1,
													"numoutlets" : 3,
													"outlettype" : [ "bang", "", "zlclear" ],
													"patching_rect" : [ 50.0, 85.0, 68.0, 22.0 ],
													"text" : "t b l zlclear"
												}

											}
, 											{
												"box" : 												{
													"id" : "obj-37",
													"maxclass" : "newobj",
													"numinlets" : 2,
													"numoutlets" : 2,
													"outlettype" : [ "", "" ],
													"patching_rect" : [ 62.5, 199.0, 113.0, 22.0 ],
													"text" : "zl 4096 group 4096"
												}

											}
, 											{
												"box" : 												{
													"fontname" : "Arial",
													"fontsize" : 12.0,
													"id" : "obj-40",
													"maxclass" : "newobj",
													"numinlets" : 3,
													"numoutlets" : 1,
													"outlettype" : [ "" ],
													"patching_rect" : [ 120.5, 150.0, 201.0, 22.0 ],
													"text" : "if $i1<12 && $i2<12 then $i1 $i2 $f3"
												}

											}
, 											{
												"box" : 												{
													"fontname" : "Arial",
													"fontsize" : 12.0,
													"id" : "obj-36",
													"maxclass" : "newobj",
													"numinlets" : 2,
													"numoutlets" : 2,
													"outlettype" : [ "", "" ],
													"patching_rect" : [ 120.5, 124.0, 79.0, 22.0 ],
													"text" : "zl 4096 iter 3"
												}

											}
, 											{
												"box" : 												{
													"comment" : "",
													"id" : "obj-39",
													"index" : 1,
													"maxclass" : "inlet",
													"numinlets" : 0,
													"numoutlets" : 1,
													"outlettype" : [ "" ],
													"patching_rect" : [ 50.0, 40.0, 30.0, 30.0 ]
												}

											}
, 											{
												"box" : 												{
													"comment" : "",
													"id" : "obj-42",
													"index" : 1,
													"maxclass" : "outlet",
													"numinlets" : 1,
													"numoutlets" : 0,
													"patching_rect" : [ 62.5, 281.0, 30.0, 30.0 ]
												}

											}
 ],
										"lines" : [ 											{
												"patchline" : 												{
													"destination" : [ "obj-5", 0 ],
													"source" : [ "obj-3", 0 ]
												}

											}
, 											{
												"patchline" : 												{
													"destination" : [ "obj-40", 0 ],
													"source" : [ "obj-36", 0 ]
												}

											}
, 											{
												"patchline" : 												{
													"destination" : [ "obj-3", 0 ],
													"order" : 0,
													"source" : [ "obj-37", 0 ]
												}

											}
, 											{
												"patchline" : 												{
													"destination" : [ "obj-42", 0 ],
													"order" : 1,
													"source" : [ "obj-37", 0 ]
												}

											}
, 											{
												"patchline" : 												{
													"destination" : [ "obj-36", 0 ],
													"source" : [ "obj-38", 1 ]
												}

											}
, 											{
												"patchline" : 												{
													"destination" : [ "obj-37", 0 ],
													"source" : [ "obj-38", 2 ]
												}

											}
, 											{
												"patchline" : 												{
													"destination" : [ "obj-37", 0 ],
													"source" : [ "obj-38", 0 ]
												}

											}
, 											{
												"patchline" : 												{
													"destination" : [ "obj-38", 0 ],
													"source" : [ "obj-39", 0 ]
												}

											}
, 											{
												"patchline" : 												{
													"destination" : [ "obj-37", 0 ],
													"source" : [ "obj-40", 0 ]
												}

											}
 ]
									}
,
									"patching_rect" : [ 1315.5, -26.0, 197.0, 22.0 ],
									"saved_object_attributes" : 									{
										"description" : "",
										"digest" : "",
										"globalpatchername" : "",
										"tags" : ""
									}
,
									"text" : "p ignore-out-of-bounds-matrix-cells"
								}

							}
, 							{
								"box" : 								{
									"fontname" : "Baskerville",
									"fontsize" : 24.0,
									"id" : "obj-11",
									"maxclass" : "comment",
									"numinlets" : 1,
									"numoutlets" : 0,
									"patching_rect" : [ 612.0, 0.0, 145.0, 34.0 ],
									"presentation" : 1,
									"presentation_rect" : [ 1770.332763999999997, 1184.0, 145.0, 34.0 ],
									"text" : "gain estimates",
									"textcolor" : [ 1.0, 1.0, 1.0, 1.0 ]
								}

							}
, 							{
								"box" : 								{
									"attr" : "bgfillcolor",
									"displaymode" : 3,
									"id" : "obj-6",
									"maxclass" : "attrui",
									"numinlets" : 1,
									"numoutlets" : 1,
									"outlettype" : [ "" ],
									"parameter_enable" : 0,
									"patching_rect" : [ 1929.0, 156.0, 217.0, 22.0 ]
								}

							}
, 							{
								"box" : 								{
									"id" : "obj-13",
									"maxclass" : "newobj",
									"numinlets" : 0,
									"numoutlets" : 1,
									"outlettype" : [ "" ],
									"patching_rect" : [ 1325.666748000000098, 672.333374000000049, 85.0, 22.0 ],
									"text" : "r preset-name"
								}

							}
, 							{
								"box" : 								{
									"fontname" : "Baskerville",
									"fontsize" : 36.0,
									"id" : "obj-12",
									"maxclass" : "message",
									"numinlets" : 2,
									"numoutlets" : 1,
									"outlettype" : [ "" ],
									"patching_rect" : [ 1350.833374000000049, 627.0, 419.0, 50.0 ],
									"presentation" : 1,
									"presentation_rect" : [ 760.166625999999951, 649.0, 382.833374000000049, 50.0 ],
									"text" : "no-connections",
									"textjustification" : 1
								}

							}
, 							{
								"box" : 								{
									"fontname" : "Baskerville",
									"fontsize" : 24.0,
									"id" : "obj-5",
									"maxclass" : "comment",
									"numinlets" : 1,
									"numoutlets" : 0,
									"patching_rect" : [ 1403.0, 11.0, 424.0, 34.0 ],
									"presentation" : 1,
									"presentation_linecount" : 2,
									"presentation_rect" : [ 835.083312999999976, 56.0, 233.0, 61.0 ],
									"text" : "Matrix view of our audio interconnections",
									"textcolor" : [ 1.0, 1.0, 1.0, 1.0 ]
								}

							}
, 							{
								"box" : 								{
									"fontname" : "Baskerville",
									"fontsize" : 24.0,
									"id" : "obj-4",
									"maxclass" : "comment",
									"numinlets" : 1,
									"numoutlets" : 0,
									"patching_rect" : [ 808.0, 11.0, 419.0, 34.0 ],
									"presentation" : 1,
									"presentation_rect" : [ 170.650482000000011, 0.0, 419.0, 34.0 ],
									"text" : "Graph view of our audio interconnections",
									"textcolor" : [ 1.0, 1.0, 1.0, 1.0 ]
								}

							}
, 							{
								"box" : 								{
									"fontname" : "Arial",
									"fontsize" : 12.0,
									"id" : "obj-103",
									"maxclass" : "newobj",
									"numinlets" : 0,
									"numoutlets" : 1,
									"outlettype" : [ "" ],
									"patcher" : 									{
										"fileversion" : 1,
										"appversion" : 										{
											"major" : 8,
											"minor" : 6,
											"revision" : 4,
											"architecture" : "x64",
											"modernui" : 1
										}
,
										"classnamespace" : "box",
										"rect" : [ 34.0, 78.0, 640.0, 480.0 ],
										"bglocked" : 0,
										"openinpresentation" : 0,
										"default_fontsize" : 12.0,
										"default_fontface" : 0,
										"default_fontname" : "Arial",
										"gridonopen" : 1,
										"gridsize" : [ 15.0, 15.0 ],
										"gridsnaponopen" : 1,
										"objectsnaponopen" : 1,
										"statusbarvisible" : 2,
										"toolbarvisible" : 1,
										"lefttoolbarpinned" : 0,
										"toptoolbarpinned" : 0,
										"righttoolbarpinned" : 0,
										"bottomtoolbarpinned" : 0,
										"toolbars_unpinned_last_save" : 0,
										"tallnewobj" : 0,
										"boxanimatetime" : 200,
										"enablehscroll" : 1,
										"enablevscroll" : 1,
										"devicewidth" : 0.0,
										"description" : "",
										"digest" : "",
										"tags" : "",
										"style" : "",
										"subpatcher_template" : "",
										"assistshowspatchername" : 0,
										"boxes" : [ 											{
												"box" : 												{
													"fontname" : "Arial",
													"fontsize" : 12.0,
													"id" : "obj-7",
													"maxclass" : "comment",
													"numinlets" : 1,
													"numoutlets" : 0,
													"patching_rect" : [ 281.0, 227.0, 150.0, 20.0 ],
													"text" : "esc"
												}

											}
, 											{
												"box" : 												{
													"fontname" : "Arial",
													"fontsize" : 12.0,
													"id" : "obj-6",
													"maxclass" : "newobj",
													"numinlets" : 2,
													"numoutlets" : 1,
													"outlettype" : [ "" ],
													"patching_rect" : [ 238.0, 198.5, 34.0, 22.0 ],
													"text" : "gate"
												}

											}
, 											{
												"box" : 												{
													"id" : "obj-5",
													"maxclass" : "toggle",
													"numinlets" : 1,
													"numoutlets" : 1,
													"outlettype" : [ "int" ],
													"parameter_enable" : 0,
													"patching_rect" : [ 264.0, 160.5, 20.0, 20.0 ]
												}

											}
, 											{
												"box" : 												{
													"fontname" : "Arial",
													"fontsize" : 12.0,
													"id" : "obj-3",
													"maxclass" : "comment",
													"numinlets" : 1,
													"numoutlets" : 0,
													"patching_rect" : [ 331.0, 142.0, 150.0, 20.0 ],
													"text" : "option"
												}

											}
, 											{
												"box" : 												{
													"fontname" : "Arial",
													"fontsize" : 12.0,
													"id" : "obj-1",
													"maxclass" : "newobj",
													"numinlets" : 2,
													"numoutlets" : 1,
													"outlettype" : [ "int" ],
													"patching_rect" : [ 264.0, 130.5, 55.0, 22.0 ],
													"text" : "== 2048"
												}

											}
, 											{
												"box" : 												{
													"id" : "obj-91",
													"maxclass" : "toggle",
													"numinlets" : 1,
													"numoutlets" : 1,
													"outlettype" : [ "int" ],
													"parameter_enable" : 0,
													"patching_rect" : [ 238.0, 257.0, 20.0, 20.0 ]
												}

											}
, 											{
												"box" : 												{
													"fontname" : "Arial",
													"fontsize" : 12.0,
													"id" : "obj-87",
													"maxclass" : "message",
													"numinlets" : 2,
													"numoutlets" : 1,
													"outlettype" : [ "" ],
													"patching_rect" : [ 238.0, 288.0, 79.0, 22.0 ],
													"text" : "fullscreen $1"
												}

											}
, 											{
												"box" : 												{
													"fontname" : "Arial",
													"fontsize" : 12.0,
													"id" : "obj-85",
													"maxclass" : "newobj",
													"numinlets" : 2,
													"numoutlets" : 2,
													"outlettype" : [ "bang", "" ],
													"patching_rect" : [ 238.0, 227.0, 43.0, 22.0 ],
													"text" : "sel 27"
												}

											}
, 											{
												"box" : 												{
													"fontname" : "Arial",
													"fontsize" : 12.0,
													"id" : "obj-84",
													"maxclass" : "newobj",
													"numinlets" : 0,
													"numoutlets" : 4,
													"outlettype" : [ "int", "int", "int", "int" ],
													"patching_rect" : [ 238.0, 80.0, 59.5, 22.0 ],
													"text" : "keyup"
												}

											}
, 											{
												"box" : 												{
													"comment" : "",
													"id" : "obj-96",
													"index" : 1,
													"maxclass" : "outlet",
													"numinlets" : 1,
													"numoutlets" : 0,
													"patching_rect" : [ 238.0, 323.0, 25.0, 25.0 ]
												}

											}
 ],
										"lines" : [ 											{
												"patchline" : 												{
													"destination" : [ "obj-5", 0 ],
													"source" : [ "obj-1", 0 ]
												}

											}
, 											{
												"patchline" : 												{
													"destination" : [ "obj-6", 0 ],
													"source" : [ "obj-5", 0 ]
												}

											}
, 											{
												"patchline" : 												{
													"destination" : [ "obj-85", 0 ],
													"source" : [ "obj-6", 0 ]
												}

											}
, 											{
												"patchline" : 												{
													"destination" : [ "obj-1", 0 ],
													"source" : [ "obj-84", 2 ]
												}

											}
, 											{
												"patchline" : 												{
													"destination" : [ "obj-6", 1 ],
													"source" : [ "obj-84", 0 ]
												}

											}
, 											{
												"patchline" : 												{
													"destination" : [ "obj-91", 0 ],
													"source" : [ "obj-85", 0 ]
												}

											}
, 											{
												"patchline" : 												{
													"destination" : [ "obj-96", 0 ],
													"source" : [ "obj-87", 0 ]
												}

											}
, 											{
												"patchline" : 												{
													"destination" : [ "obj-87", 0 ],
													"source" : [ "obj-91", 0 ]
												}

											}
 ]
									}
,
									"patching_rect" : [ 1759.0, 5.0, 72.0, 22.0 ],
									"saved_object_attributes" : 									{
										"description" : "",
										"digest" : "",
										"globalpatchername" : "",
										"tags" : ""
									}
,
									"text" : "p fullscreen"
								}

							}
, 							{
								"box" : 								{
									"fontname" : "Arial",
									"fontsize" : 12.0,
									"id" : "obj-83",
									"maxclass" : "newobj",
									"numinlets" : 1,
									"numoutlets" : 2,
									"outlettype" : [ "", "" ],
									"patching_rect" : [ 1831.0, 5.0, 69.0, 22.0 ],
									"save" : [ "#N", "thispatcher", ";", "#Q", "end", ";" ],
									"text" : "thispatcher"
								}

							}
, 							{
								"box" : 								{
									"columns" : 12,
									"id" : "obj-31",
									"maxclass" : "matrixctrl",
									"numinlets" : 1,
									"numoutlets" : 2,
									"outlettype" : [ "list", "list" ],
									"parameter_enable" : 0,
									"patching_rect" : [ 1349.333374000000049, 54.0, 560.0, 560.0 ],
									"presentation" : 1,
									"presentation_rect" : [ 760.166625999999951, 122.666686999999996, 382.833373999999992, 386.0 ],
									"rows" : 12
								}

							}
, 							{
								"box" : 								{
									"fontname" : "Arial",
									"fontsize" : 12.0,
									"id" : "obj-154",
									"maxclass" : "newobj",
									"numinlets" : 1,
									"numoutlets" : 1,
									"outlettype" : [ "jit_matrix" ],
									"patcher" : 									{
										"fileversion" : 1,
										"appversion" : 										{
											"major" : 8,
											"minor" : 6,
											"revision" : 4,
											"architecture" : "x64",
											"modernui" : 1
										}
,
										"classnamespace" : "box",
										"rect" : [ 532.0, 138.0, 829.0, 471.0 ],
										"bglocked" : 0,
										"openinpresentation" : 0,
										"default_fontsize" : 12.0,
										"default_fontface" : 0,
										"default_fontname" : "Arial",
										"gridonopen" : 1,
										"gridsize" : [ 15.0, 15.0 ],
										"gridsnaponopen" : 1,
										"objectsnaponopen" : 1,
										"statusbarvisible" : 2,
										"toolbarvisible" : 1,
										"lefttoolbarpinned" : 0,
										"toptoolbarpinned" : 0,
										"righttoolbarpinned" : 0,
										"bottomtoolbarpinned" : 0,
										"toolbars_unpinned_last_save" : 0,
										"tallnewobj" : 0,
										"boxanimatetime" : 200,
										"enablehscroll" : 1,
										"enablevscroll" : 1,
										"devicewidth" : 0.0,
										"description" : "",
										"digest" : "",
										"tags" : "",
										"style" : "",
										"subpatcher_template" : "",
										"assistshowspatchername" : 0,
										"boxes" : [ 											{
												"box" : 												{
													"id" : "obj-25",
													"maxclass" : "newobj",
													"numinlets" : 0,
													"numoutlets" : 1,
													"outlettype" : [ "" ],
													"patcher" : 													{
														"fileversion" : 1,
														"appversion" : 														{
															"major" : 8,
															"minor" : 6,
															"revision" : 4,
															"architecture" : "x64",
															"modernui" : 1
														}
,
														"classnamespace" : "box",
														"rect" : [ 84.0, 128.0, 857.0, 203.0 ],
														"bglocked" : 0,
														"openinpresentation" : 0,
														"default_fontsize" : 12.0,
														"default_fontface" : 0,
														"default_fontname" : "Arial",
														"gridonopen" : 1,
														"gridsize" : [ 15.0, 15.0 ],
														"gridsnaponopen" : 1,
														"objectsnaponopen" : 1,
														"statusbarvisible" : 2,
														"toolbarvisible" : 1,
														"lefttoolbarpinned" : 0,
														"toptoolbarpinned" : 0,
														"righttoolbarpinned" : 0,
														"bottomtoolbarpinned" : 0,
														"toolbars_unpinned_last_save" : 0,
														"tallnewobj" : 0,
														"boxanimatetime" : 200,
														"enablehscroll" : 1,
														"enablevscroll" : 1,
														"devicewidth" : 0.0,
														"description" : "",
														"digest" : "",
														"tags" : "",
														"style" : "",
														"subpatcher_template" : "",
														"assistshowspatchername" : 0,
														"boxes" : [ 															{
																"box" : 																{
																	"id" : "obj-19",
																	"maxclass" : "message",
																	"numinlets" : 2,
																	"numoutlets" : 1,
																	"outlettype" : [ "" ],
																	"patching_rect" : [ 733.999877999999967, 57.0, 41.0, 22.0 ],
																	"text" : "12 $1"
																}

															}
, 															{
																"box" : 																{
																	"fontname" : "Arial",
																	"fontsize" : 12.0,
																	"id" : "obj-20",
																	"maxclass" : "newobj",
																	"numinlets" : 0,
																	"numoutlets" : 1,
																	"outlettype" : [ "" ],
																	"patching_rect" : [ 734.0, 26.0, 65.0, 22.0 ],
																	"text" : "r 12-name"
																}

															}
, 															{
																"box" : 																{
																	"id" : "obj-7",
																	"maxclass" : "message",
																	"numinlets" : 2,
																	"numoutlets" : 1,
																	"outlettype" : [ "" ],
																	"patching_rect" : [ 666.999877999999967, 57.0, 40.0, 22.0 ],
																	"text" : "11 $1"
																}

															}
, 															{
																"box" : 																{
																	"fontname" : "Arial",
																	"fontsize" : 12.0,
																	"id" : "obj-18",
																	"maxclass" : "newobj",
																	"numinlets" : 0,
																	"numoutlets" : 1,
																	"outlettype" : [ "" ],
																	"patching_rect" : [ 667.0, 26.0, 64.0, 22.0 ],
																	"text" : "r 11-name"
																}

															}
, 															{
																"box" : 																{
																	"id" : "obj-3",
																	"maxclass" : "message",
																	"numinlets" : 2,
																	"numoutlets" : 1,
																	"outlettype" : [ "" ],
																	"patching_rect" : [ 599.999877999999967, 57.0, 41.0, 22.0 ],
																	"text" : "10 $1"
																}

															}
, 															{
																"box" : 																{
																	"fontname" : "Arial",
																	"fontsize" : 12.0,
																	"id" : "obj-4",
																	"maxclass" : "newobj",
																	"numinlets" : 0,
																	"numoutlets" : 1,
																	"outlettype" : [ "" ],
																	"patching_rect" : [ 600.0, 26.0, 65.0, 22.0 ],
																	"text" : "r 10-name"
																}

															}
, 															{
																"box" : 																{
																	"id" : "obj-1",
																	"maxclass" : "message",
																	"numinlets" : 2,
																	"numoutlets" : 1,
																	"outlettype" : [ "" ],
																	"patching_rect" : [ 532.999877999999967, 57.0, 34.0, 22.0 ],
																	"text" : "9 $1"
																}

															}
, 															{
																"box" : 																{
																	"fontname" : "Arial",
																	"fontsize" : 12.0,
																	"id" : "obj-2",
																	"maxclass" : "newobj",
																	"numinlets" : 0,
																	"numoutlets" : 1,
																	"outlettype" : [ "" ],
																	"patching_rect" : [ 533.0, 26.0, 59.0, 22.0 ],
																	"text" : "r 9-name"
																}

															}
, 															{
																"box" : 																{
																	"id" : "obj-13",
																	"maxclass" : "message",
																	"numinlets" : 2,
																	"numoutlets" : 1,
																	"outlettype" : [ "" ],
																	"patching_rect" : [ 465.999908000000005, 57.0, 34.0, 22.0 ],
																	"text" : "8 $1"
																}

															}
, 															{
																"box" : 																{
																	"id" : "obj-14",
																	"maxclass" : "message",
																	"numinlets" : 2,
																	"numoutlets" : 1,
																	"outlettype" : [ "" ],
																	"patching_rect" : [ 401.79965199999998, 57.0, 34.0, 22.0 ],
																	"text" : "7 $1"
																}

															}
, 															{
																"box" : 																{
																	"id" : "obj-15",
																	"maxclass" : "message",
																	"numinlets" : 2,
																	"numoutlets" : 1,
																	"outlettype" : [ "" ],
																	"patching_rect" : [ 339.999969000000021, 57.0, 34.0, 22.0 ],
																	"text" : "6 $1"
																}

															}
, 															{
																"box" : 																{
																	"id" : "obj-16",
																	"maxclass" : "message",
																	"numinlets" : 2,
																	"numoutlets" : 1,
																	"outlettype" : [ "" ],
																	"patching_rect" : [ 278.999969000000021, 57.0, 34.0, 22.0 ],
																	"text" : "5 $1"
																}

															}
, 															{
																"box" : 																{
																	"id" : "obj-10",
																	"maxclass" : "message",
																	"numinlets" : 2,
																	"numoutlets" : 1,
																	"outlettype" : [ "" ],
																	"patching_rect" : [ 217.999968999999993, 57.0, 34.0, 22.0 ],
																	"text" : "4 $1"
																}

															}
, 															{
																"box" : 																{
																	"id" : "obj-12",
																	"maxclass" : "message",
																	"numinlets" : 2,
																	"numoutlets" : 1,
																	"outlettype" : [ "" ],
																	"patching_rect" : [ 155.799712999999997, 57.0, 34.0, 22.0 ],
																	"text" : "3 $1"
																}

															}
, 															{
																"box" : 																{
																	"id" : "obj-9",
																	"maxclass" : "message",
																	"numinlets" : 2,
																	"numoutlets" : 1,
																	"outlettype" : [ "" ],
																	"patching_rect" : [ 92.0, 57.0, 34.0, 22.0 ],
																	"text" : "2 $1"
																}

															}
, 															{
																"box" : 																{
																	"id" : "obj-8",
																	"maxclass" : "message",
																	"numinlets" : 2,
																	"numoutlets" : 1,
																	"outlettype" : [ "" ],
																	"patching_rect" : [ 29.0, 57.0, 34.0, 22.0 ],
																	"text" : "1 $1"
																}

															}
, 															{
																"box" : 																{
																	"fontname" : "Arial",
																	"fontsize" : 12.0,
																	"id" : "obj-34",
																	"maxclass" : "newobj",
																	"numinlets" : 0,
																	"numoutlets" : 1,
																	"outlettype" : [ "" ],
																	"patching_rect" : [ 465.999969000000021, 26.0, 59.0, 22.0 ],
																	"text" : "r 8-name"
																}

															}
, 															{
																"box" : 																{
																	"fontname" : "Arial",
																	"fontsize" : 12.0,
																	"id" : "obj-30",
																	"maxclass" : "newobj",
																	"numinlets" : 0,
																	"numoutlets" : 1,
																	"outlettype" : [ "" ],
																	"patching_rect" : [ 400.999969000000021, 26.0, 59.0, 22.0 ],
																	"text" : "r 7-name"
																}

															}
, 															{
																"box" : 																{
																	"fontname" : "Arial",
																	"fontsize" : 12.0,
																	"id" : "obj-28",
																	"maxclass" : "newobj",
																	"numinlets" : 0,
																	"numoutlets" : 1,
																	"outlettype" : [ "" ],
																	"patching_rect" : [ 339.999969000000021, 26.0, 59.0, 22.0 ],
																	"text" : "r 6-name"
																}

															}
, 															{
																"box" : 																{
																	"fontname" : "Arial",
																	"fontsize" : 12.0,
																	"id" : "obj-23",
																	"maxclass" : "newobj",
																	"numinlets" : 0,
																	"numoutlets" : 1,
																	"outlettype" : [ "" ],
																	"patching_rect" : [ 278.999969000000021, 26.0, 59.0, 22.0 ],
																	"text" : "r 5-name"
																}

															}
, 															{
																"box" : 																{
																	"fontname" : "Arial",
																	"fontsize" : 12.0,
																	"id" : "obj-17",
																	"maxclass" : "newobj",
																	"numinlets" : 0,
																	"numoutlets" : 1,
																	"outlettype" : [ "" ],
																	"patching_rect" : [ 217.999968999999993, 26.0, 59.0, 22.0 ],
																	"text" : "r 4-name"
																}

															}
, 															{
																"box" : 																{
																	"fontname" : "Arial",
																	"fontsize" : 12.0,
																	"id" : "obj-11",
																	"maxclass" : "newobj",
																	"numinlets" : 0,
																	"numoutlets" : 1,
																	"outlettype" : [ "" ],
																	"patching_rect" : [ 155.799712999999997, 26.0, 59.0, 22.0 ],
																	"text" : "r 3-name"
																}

															}
, 															{
																"box" : 																{
																	"fontname" : "Arial",
																	"fontsize" : 12.0,
																	"id" : "obj-6",
																	"maxclass" : "newobj",
																	"numinlets" : 0,
																	"numoutlets" : 1,
																	"outlettype" : [ "" ],
																	"patching_rect" : [ 92.0, 26.0, 59.0, 22.0 ],
																	"text" : "r 2-name"
																}

															}
, 															{
																"box" : 																{
																	"fontname" : "Arial",
																	"fontsize" : 12.0,
																	"id" : "obj-5",
																	"maxclass" : "newobj",
																	"numinlets" : 0,
																	"numoutlets" : 1,
																	"outlettype" : [ "" ],
																	"patching_rect" : [ 29.0, 26.0, 59.0, 22.0 ],
																	"text" : "r 1-name"
																}

															}
, 															{
																"box" : 																{
																	"comment" : "",
																	"id" : "obj-24",
																	"index" : 1,
																	"maxclass" : "outlet",
																	"numinlets" : 1,
																	"numoutlets" : 0,
																	"patching_rect" : [ 422.0, 118.0, 30.0, 30.0 ]
																}

															}
 ],
														"lines" : [ 															{
																"patchline" : 																{
																	"destination" : [ "obj-24", 0 ],
																	"source" : [ "obj-1", 0 ]
																}

															}
, 															{
																"patchline" : 																{
																	"destination" : [ "obj-24", 0 ],
																	"source" : [ "obj-10", 0 ]
																}

															}
, 															{
																"patchline" : 																{
																	"destination" : [ "obj-12", 0 ],
																	"source" : [ "obj-11", 0 ]
																}

															}
, 															{
																"patchline" : 																{
																	"destination" : [ "obj-24", 0 ],
																	"source" : [ "obj-12", 0 ]
																}

															}
, 															{
																"patchline" : 																{
																	"destination" : [ "obj-24", 0 ],
																	"source" : [ "obj-13", 0 ]
																}

															}
, 															{
																"patchline" : 																{
																	"destination" : [ "obj-24", 0 ],
																	"source" : [ "obj-14", 0 ]
																}

															}
, 															{
																"patchline" : 																{
																	"destination" : [ "obj-24", 0 ],
																	"source" : [ "obj-15", 0 ]
																}

															}
, 															{
																"patchline" : 																{
																	"destination" : [ "obj-24", 0 ],
																	"source" : [ "obj-16", 0 ]
																}

															}
, 															{
																"patchline" : 																{
																	"destination" : [ "obj-10", 0 ],
																	"source" : [ "obj-17", 0 ]
																}

															}
, 															{
																"patchline" : 																{
																	"destination" : [ "obj-7", 0 ],
																	"source" : [ "obj-18", 0 ]
																}

															}
, 															{
																"patchline" : 																{
																	"destination" : [ "obj-24", 0 ],
																	"source" : [ "obj-19", 0 ]
																}

															}
, 															{
																"patchline" : 																{
																	"destination" : [ "obj-1", 0 ],
																	"source" : [ "obj-2", 0 ]
																}

															}
, 															{
																"patchline" : 																{
																	"destination" : [ "obj-19", 0 ],
																	"source" : [ "obj-20", 0 ]
																}

															}
, 															{
																"patchline" : 																{
																	"destination" : [ "obj-16", 0 ],
																	"source" : [ "obj-23", 0 ]
																}

															}
, 															{
																"patchline" : 																{
																	"destination" : [ "obj-15", 0 ],
																	"source" : [ "obj-28", 0 ]
																}

															}
, 															{
																"patchline" : 																{
																	"destination" : [ "obj-24", 0 ],
																	"source" : [ "obj-3", 0 ]
																}

															}
, 															{
																"patchline" : 																{
																	"destination" : [ "obj-14", 0 ],
																	"source" : [ "obj-30", 0 ]
																}

															}
, 															{
																"patchline" : 																{
																	"destination" : [ "obj-13", 0 ],
																	"source" : [ "obj-34", 0 ]
																}

															}
, 															{
																"patchline" : 																{
																	"destination" : [ "obj-3", 0 ],
																	"source" : [ "obj-4", 0 ]
																}

															}
, 															{
																"patchline" : 																{
																	"destination" : [ "obj-8", 0 ],
																	"source" : [ "obj-5", 0 ]
																}

															}
, 															{
																"patchline" : 																{
																	"destination" : [ "obj-9", 0 ],
																	"source" : [ "obj-6", 0 ]
																}

															}
, 															{
																"patchline" : 																{
																	"destination" : [ "obj-24", 0 ],
																	"source" : [ "obj-7", 0 ]
																}

															}
, 															{
																"patchline" : 																{
																	"destination" : [ "obj-24", 0 ],
																	"source" : [ "obj-8", 0 ]
																}

															}
, 															{
																"patchline" : 																{
																	"destination" : [ "obj-24", 0 ],
																	"source" : [ "obj-9", 0 ]
																}

															}
 ]
													}
,
													"patching_rect" : [ 295.700287000000003, 266.0, 99.0, 22.0 ],
													"saved_object_attributes" : 													{
														"description" : "",
														"digest" : "",
														"globalpatchername" : "",
														"tags" : ""
													}
,
													"text" : "p receive-names"
												}

											}
, 											{
												"box" : 												{
													"id" : "obj-162",
													"maxclass" : "button",
													"numinlets" : 1,
													"numoutlets" : 1,
													"outlettype" : [ "bang" ],
													"parameter_enable" : 0,
													"patching_rect" : [ 346.948607999999979, 368.0, 20.0, 20.0 ]
												}

											}
, 											{
												"box" : 												{
													"fontname" : "Arial",
													"fontsize" : 12.0,
													"id" : "obj-153",
													"maxclass" : "newobj",
													"numinlets" : 2,
													"numoutlets" : 2,
													"outlettype" : [ "bang", "" ],
													"patcher" : 													{
														"fileversion" : 1,
														"appversion" : 														{
															"major" : 8,
															"minor" : 6,
															"revision" : 4,
															"architecture" : "x64",
															"modernui" : 1
														}
,
														"classnamespace" : "box",
														"rect" : [ 916.0, 436.0, 668.0, 488.0 ],
														"bglocked" : 0,
														"openinpresentation" : 0,
														"default_fontsize" : 12.0,
														"default_fontface" : 0,
														"default_fontname" : "Arial",
														"gridonopen" : 1,
														"gridsize" : [ 15.0, 15.0 ],
														"gridsnaponopen" : 1,
														"objectsnaponopen" : 1,
														"statusbarvisible" : 2,
														"toolbarvisible" : 1,
														"lefttoolbarpinned" : 0,
														"toptoolbarpinned" : 0,
														"righttoolbarpinned" : 0,
														"bottomtoolbarpinned" : 0,
														"toolbars_unpinned_last_save" : 0,
														"tallnewobj" : 0,
														"boxanimatetime" : 200,
														"enablehscroll" : 1,
														"enablevscroll" : 1,
														"devicewidth" : 0.0,
														"description" : "",
														"digest" : "",
														"tags" : "",
														"style" : "",
														"subpatcher_template" : "",
														"assistshowspatchername" : 0,
														"boxes" : [ 															{
																"box" : 																{
																	"comment" : "",
																	"id" : "obj-7",
																	"index" : 1,
																	"maxclass" : "outlet",
																	"numinlets" : 1,
																	"numoutlets" : 0,
																	"patching_rect" : [ 25.0, 86.0, 25.0, 25.0 ]
																}

															}
, 															{
																"box" : 																{
																	"comment" : "",
																	"id" : "obj-2",
																	"index" : 2,
																	"maxclass" : "outlet",
																	"numinlets" : 1,
																	"numoutlets" : 0,
																	"patching_rect" : [ 564.0, 197.0, 25.0, 25.0 ]
																}

															}
, 															{
																"box" : 																{
																	"fontname" : "Arial",
																	"fontsize" : 12.0,
																	"id" : "obj-5",
																	"maxclass" : "newobj",
																	"numinlets" : 1,
																	"numoutlets" : 0,
																	"patching_rect" : [ -12.5, 384.0, 52.0, 22.0 ],
																	"text" : "s matrix"
																}

															}
, 															{
																"box" : 																{
																	"comment" : "",
																	"id" : "obj-4",
																	"index" : 2,
																	"maxclass" : "inlet",
																	"numinlets" : 0,
																	"numoutlets" : 1,
																	"outlettype" : [ "" ],
																	"patching_rect" : [ 564.0, 17.0, 25.0, 25.0 ]
																}

															}
, 															{
																"box" : 																{
																	"fontname" : "Arial",
																	"fontsize" : 12.0,
																	"id" : "obj-3",
																	"linecount" : 13,
																	"maxclass" : "message",
																	"numinlets" : 2,
																	"numoutlets" : 1,
																	"outlettype" : [ "" ],
																	"patching_rect" : [ 50.0, 111.0, 425.0, 183.0 ],
																	"text" : "0 0 0. 0 1 0. 0 2 0. 0 3 0. 0 4 0. 0 5 1. 0 6 0. 0 7 0. 0 8 0. 0 9 0. 0 10 0. 0 11 0. 1 0 1. 1 1 0. 1 2 0. 1 3 0. 1 4 0. 1 5 0. 1 6 0. 1 7 0. 1 8 0. 1 9 0. 1 10 0. 1 11 0. 2 0 0. 2 1 1. 2 2 0. 2 3 0. 2 4 0. 2 5 0. 2 6 0. 2 7 0. 2 8 0. 2 9 0. 2 10 0. 2 11 0. 3 0 0. 3 1 0. 3 2 1. 3 3 0. 3 4 0. 3 5 0. 3 6 0. 3 7 0. 3 8 0. 3 9 0. 3 10 0. 3 11 0. 4 0 0. 4 1 0. 4 2 0. 4 3 1. 4 4 0. 4 5 0. 4 6 0. 4 7 0. 4 8 0. 4 9 0. 4 10 0. 4 11 0. 5 0 0. 5 1 0. 5 2 0. 5 3 0. 5 4 1. 5 5 0. 5 6 0. 5 7 0. 5 8 0. 5 9 0. 5 10 0. 5 11 0. 6 0 0. 6 1 0. 6 2 0. 6 3 0. 6 4 0. 6 5 0. 6 6 0. 6 7 0. 6 8 0. 6 9 0. 6 10 0. 6 11 0. 7 0 0. 7 1 0. 7 2 0. 7 3 0. 7 4 0. 7 5 0. 7 6 0. 7 7 0. 7 8 0. 7 9 0. 7 10 0. 7 11 0. 8 0 0. 8 1 0. 8 2 0. 8 3 0. 8 4 0. 8 5 0. 8 6 0. 8 7 0. 8 8 0. 8 9 0. 8 10 0. 8 11 0. 9 0 0. 9 1 0. 9 2 0. 9 3 0. 9 4 0. 9 5 0. 9 6 0. 9 7 0. 9 8 0. 9 9 0. 9 10 0. 9 11 0. 10 0 0. 10 1 0. 10 2 0. 10 3 0. 10 4 0. 10 5 0. 10 6 0. 10 7 0. 10 8 0. 10 9 0. 10 10 0. 10 11 0. 11 0 0. 11 1 0. 11 2 0. 11 3 0. 11 4 0. 11 5 0. 11 6 0. 11 7 0. 11 8 0. 11 9 0. 11 10 0. 11 11 0."
																}

															}
, 															{
																"box" : 																{
																	"comment" : "",
																	"id" : "obj-1",
																	"index" : 1,
																	"maxclass" : "inlet",
																	"numinlets" : 0,
																	"numoutlets" : 1,
																	"outlettype" : [ "bang" ],
																	"patching_rect" : [ 46.0, 17.0, 25.0, 25.0 ]
																}

															}
 ],
														"lines" : [ 															{
																"patchline" : 																{
																	"destination" : [ "obj-3", 0 ],
																	"order" : 0,
																	"source" : [ "obj-1", 0 ]
																}

															}
, 															{
																"patchline" : 																{
																	"destination" : [ "obj-7", 0 ],
																	"order" : 1,
																	"source" : [ "obj-1", 0 ]
																}

															}
, 															{
																"patchline" : 																{
																	"destination" : [ "obj-5", 0 ],
																	"source" : [ "obj-3", 0 ]
																}

															}
, 															{
																"patchline" : 																{
																	"destination" : [ "obj-2", 0 ],
																	"order" : 0,
																	"source" : [ "obj-4", 0 ]
																}

															}
, 															{
																"patchline" : 																{
																	"destination" : [ "obj-3", 1 ],
																	"order" : 1,
																	"source" : [ "obj-4", 0 ]
																}

															}
 ]
													}
,
													"patching_rect" : [ 369.948607999999979, 399.0, 96.0, 22.0 ],
													"saved_object_attributes" : 													{
														"description" : "",
														"digest" : "",
														"globalpatchername" : "",
														"tags" : ""
													}
,
													"text" : "p backward-ring"
												}

											}
, 											{
												"box" : 												{
													"fontname" : "Arial",
													"fontsize" : 12.0,
													"id" : "obj-155",
													"maxclass" : "newobj",
													"numinlets" : 2,
													"numoutlets" : 2,
													"outlettype" : [ "bang", "" ],
													"patcher" : 													{
														"fileversion" : 1,
														"appversion" : 														{
															"major" : 8,
															"minor" : 6,
															"revision" : 4,
															"architecture" : "x64",
															"modernui" : 1
														}
,
														"classnamespace" : "box",
														"rect" : [ 916.0, 436.0, 668.0, 488.0 ],
														"bglocked" : 0,
														"openinpresentation" : 0,
														"default_fontsize" : 12.0,
														"default_fontface" : 0,
														"default_fontname" : "Arial",
														"gridonopen" : 1,
														"gridsize" : [ 15.0, 15.0 ],
														"gridsnaponopen" : 1,
														"objectsnaponopen" : 1,
														"statusbarvisible" : 2,
														"toolbarvisible" : 1,
														"lefttoolbarpinned" : 0,
														"toptoolbarpinned" : 0,
														"righttoolbarpinned" : 0,
														"bottomtoolbarpinned" : 0,
														"toolbars_unpinned_last_save" : 0,
														"tallnewobj" : 0,
														"boxanimatetime" : 200,
														"enablehscroll" : 1,
														"enablevscroll" : 1,
														"devicewidth" : 0.0,
														"description" : "",
														"digest" : "",
														"tags" : "",
														"style" : "",
														"subpatcher_template" : "",
														"assistshowspatchername" : 0,
														"boxes" : [ 															{
																"box" : 																{
																	"comment" : "",
																	"id" : "obj-7",
																	"index" : 1,
																	"maxclass" : "outlet",
																	"numinlets" : 1,
																	"numoutlets" : 0,
																	"patching_rect" : [ 25.0, 86.0, 25.0, 25.0 ]
																}

															}
, 															{
																"box" : 																{
																	"comment" : "",
																	"id" : "obj-2",
																	"index" : 2,
																	"maxclass" : "outlet",
																	"numinlets" : 1,
																	"numoutlets" : 0,
																	"patching_rect" : [ 564.0, 197.0, 25.0, 25.0 ]
																}

															}
, 															{
																"box" : 																{
																	"fontname" : "Arial",
																	"fontsize" : 12.0,
																	"id" : "obj-5",
																	"maxclass" : "newobj",
																	"numinlets" : 1,
																	"numoutlets" : 0,
																	"patching_rect" : [ -12.5, 384.0, 52.0, 22.0 ],
																	"text" : "s matrix"
																}

															}
, 															{
																"box" : 																{
																	"comment" : "",
																	"id" : "obj-4",
																	"index" : 2,
																	"maxclass" : "inlet",
																	"numinlets" : 0,
																	"numoutlets" : 1,
																	"outlettype" : [ "" ],
																	"patching_rect" : [ 564.0, 17.0, 25.0, 25.0 ]
																}

															}
, 															{
																"box" : 																{
																	"fontname" : "Arial",
																	"fontsize" : 12.0,
																	"id" : "obj-3",
																	"linecount" : 13,
																	"maxclass" : "message",
																	"numinlets" : 2,
																	"numoutlets" : 1,
																	"outlettype" : [ "" ],
																	"patching_rect" : [ 50.0, 111.0, 425.0, 183.0 ],
																	"text" : "0 0 0. 0 1 1. 0 2 0. 0 3 0. 0 4 0. 0 5 0. 0 6 0. 0 7 0. 0 8 0. 0 9 0. 0 10 0. 0 11 0. 1 0 0. 1 1 0. 1 2 1. 1 3 0. 1 4 0. 1 5 0. 1 6 0. 1 7 0. 1 8 0. 1 9 0. 1 10 0. 1 11 0. 2 0 0. 2 1 0. 2 2 0. 2 3 1. 2 4 0. 2 5 0. 2 6 0. 2 7 0. 2 8 0. 2 9 0. 2 10 0. 2 11 0. 3 0 0. 3 1 0. 3 2 0. 3 3 0. 3 4 1. 3 5 0. 3 6 0. 3 7 0. 3 8 0. 3 9 0. 3 10 0. 3 11 0. 4 0 0. 4 1 0. 4 2 0. 4 3 0. 4 4 0. 4 5 1. 4 6 0. 4 7 0. 4 8 0. 4 9 0. 4 10 0. 4 11 0. 5 0 1. 5 1 0. 5 2 0. 5 3 0. 5 4 0. 5 5 0. 5 6 0. 5 7 0. 5 8 0. 5 9 0. 5 10 0. 5 11 0. 6 0 0. 6 1 0. 6 2 0. 6 3 0. 6 4 0. 6 5 0. 6 6 0. 6 7 0. 6 8 0. 6 9 0. 6 10 0. 6 11 0. 7 0 0. 7 1 0. 7 2 0. 7 3 0. 7 4 0. 7 5 0. 7 6 0. 7 7 0. 7 8 0. 7 9 0. 7 10 0. 7 11 0. 8 0 0. 8 1 0. 8 2 0. 8 3 0. 8 4 0. 8 5 0. 8 6 0. 8 7 0. 8 8 0. 8 9 0. 8 10 0. 8 11 0. 9 0 0. 9 1 0. 9 2 0. 9 3 0. 9 4 0. 9 5 0. 9 6 0. 9 7 0. 9 8 0. 9 9 0. 9 10 0. 9 11 0. 10 0 0. 10 1 0. 10 2 0. 10 3 0. 10 4 0. 10 5 0. 10 6 0. 10 7 0. 10 8 0. 10 9 0. 10 10 0. 10 11 0. 11 0 0. 11 1 0. 11 2 0. 11 3 0. 11 4 0. 11 5 0. 11 6 0. 11 7 0. 11 8 0. 11 9 0. 11 10 0. 11 11 0."
																}

															}
, 															{
																"box" : 																{
																	"comment" : "",
																	"id" : "obj-1",
																	"index" : 1,
																	"maxclass" : "inlet",
																	"numinlets" : 0,
																	"numoutlets" : 1,
																	"outlettype" : [ "bang" ],
																	"patching_rect" : [ 46.0, 17.0, 25.0, 25.0 ]
																}

															}
 ],
														"lines" : [ 															{
																"patchline" : 																{
																	"destination" : [ "obj-3", 0 ],
																	"order" : 0,
																	"source" : [ "obj-1", 0 ]
																}

															}
, 															{
																"patchline" : 																{
																	"destination" : [ "obj-7", 0 ],
																	"order" : 1,
																	"source" : [ "obj-1", 0 ]
																}

															}
, 															{
																"patchline" : 																{
																	"destination" : [ "obj-5", 0 ],
																	"source" : [ "obj-3", 0 ]
																}

															}
, 															{
																"patchline" : 																{
																	"destination" : [ "obj-2", 0 ],
																	"order" : 0,
																	"source" : [ "obj-4", 0 ]
																}

															}
, 															{
																"patchline" : 																{
																	"destination" : [ "obj-3", 1 ],
																	"order" : 1,
																	"source" : [ "obj-4", 0 ]
																}

															}
 ]
													}
,
													"patching_rect" : [ 369.948607999999979, 368.0, 85.0, 22.0 ],
													"saved_object_attributes" : 													{
														"description" : "",
														"digest" : "",
														"globalpatchername" : "",
														"tags" : ""
													}
,
													"text" : "p forward-ring"
												}

											}
, 											{
												"box" : 												{
													"id" : "obj-146",
													"maxclass" : "button",
													"numinlets" : 1,
													"numoutlets" : 1,
													"outlettype" : [ "bang" ],
													"parameter_enable" : 0,
													"patching_rect" : [ 346.948607999999979, 399.0, 20.0, 20.0 ]
												}

											}
, 											{
												"box" : 												{
													"fontname" : "Arial",
													"fontsize" : 12.0,
													"id" : "obj-22",
													"linecount" : 9,
													"maxclass" : "message",
													"numinlets" : 2,
													"numoutlets" : 1,
													"outlettype" : [ "" ],
													"patching_rect" : [ 475.0, 292.0, 113.0, 129.0 ],
													"text" : ";\r1-name Matt;\r2-name Hafiz;\r3-name Tim;\r4-name Fernando;\r5-name Hannah;\r6-name Karl;\r7-name bypass;\r8-name bypass"
												}

											}
, 											{
												"box" : 												{
													"id" : "obj-20",
													"int" : 1,
													"maxclass" : "gswitch",
													"numinlets" : 3,
													"numoutlets" : 1,
													"outlettype" : [ "" ],
													"parameter_enable" : 0,
													"patching_rect" : [ 280.700287000000003, 362.0, 41.0, 32.0 ]
												}

											}
, 											{
												"box" : 												{
													"id" : "obj-19",
													"int" : 1,
													"maxclass" : "gswitch",
													"numinlets" : 3,
													"numoutlets" : 1,
													"outlettype" : [ "" ],
													"parameter_enable" : 0,
													"patching_rect" : [ 3.0, 230.0, 41.0, 32.0 ]
												}

											}
, 											{
												"box" : 												{
													"id" : "obj-18",
													"maxclass" : "newobj",
													"numinlets" : 1,
													"numoutlets" : 1,
													"outlettype" : [ "" ],
													"patching_rect" : [ 295.700287000000003, 296.0, 88.0, 22.0 ],
													"text" : "prepend name"
												}

											}
, 											{
												"box" : 												{
													"id" : "obj-3",
													"maxclass" : "message",
													"numinlets" : 2,
													"numoutlets" : 1,
													"outlettype" : [ "" ],
													"patching_rect" : [ 264.700287000000003, 224.0, 289.0, 22.0 ],
													"text" : "name 1 foo, name 2 bar, name 3 baz, name 4 garply"
												}

											}
, 											{
												"box" : 												{
													"id" : "obj-1",
													"maxclass" : "newobj",
													"numinlets" : 1,
													"numoutlets" : 0,
													"patching_rect" : [ 3.0, 270.0, 97.0, 22.0 ],
													"text" : "print to-graphviz"
												}

											}
, 											{
												"box" : 												{
													"fontname" : "Arial",
													"fontsize" : 12.0,
													"id" : "obj-95",
													"maxclass" : "comment",
													"numinlets" : 1,
													"numoutlets" : 0,
													"patching_rect" : [ 248.0, 143.0, 660.0, 20.0 ],
													"text" : "uses the \"shell\" external to call out to graphviz to make a .png of the graph from the .dot file text."
												}

											}
, 											{
												"box" : 												{
													"fontname" : "Arial",
													"fontsize" : 12.0,
													"id" : "obj-94",
													"maxclass" : "comment",
													"numinlets" : 1,
													"numoutlets" : 0,
													"patching_rect" : [ 248.0, 113.0, 660.0, 20.0 ],
													"text" : "this is some javascript that make a .dot file given the state of the matrix"
												}

											}
, 											{
												"box" : 												{
													"fontname" : "Arial",
													"fontsize" : 12.0,
													"id" : "obj-93",
													"maxclass" : "comment",
													"numinlets" : 1,
													"numoutlets" : 0,
													"patching_rect" : [ 248.0, 83.0, 660.0, 20.0 ],
													"text" : "every click/drag makes a whole state update. we slow that down here."
												}

											}
, 											{
												"box" : 												{
													"fontname" : "Arial",
													"fontsize" : 12.0,
													"id" : "obj-143",
													"maxclass" : "newobj",
													"numinlets" : 1,
													"numoutlets" : 1,
													"outlettype" : [ "" ],
													"patcher" : 													{
														"fileversion" : 1,
														"appversion" : 														{
															"major" : 8,
															"minor" : 6,
															"revision" : 4,
															"architecture" : "x64",
															"modernui" : 1
														}
,
														"classnamespace" : "box",
														"rect" : [ 29.0, 70.0, 640.0, 480.0 ],
														"bglocked" : 0,
														"openinpresentation" : 0,
														"default_fontsize" : 12.0,
														"default_fontface" : 0,
														"default_fontname" : "Arial",
														"gridonopen" : 1,
														"gridsize" : [ 15.0, 15.0 ],
														"gridsnaponopen" : 1,
														"objectsnaponopen" : 1,
														"statusbarvisible" : 2,
														"toolbarvisible" : 1,
														"lefttoolbarpinned" : 0,
														"toptoolbarpinned" : 0,
														"righttoolbarpinned" : 0,
														"bottomtoolbarpinned" : 0,
														"toolbars_unpinned_last_save" : 0,
														"tallnewobj" : 0,
														"boxanimatetime" : 200,
														"enablehscroll" : 1,
														"enablevscroll" : 1,
														"devicewidth" : 0.0,
														"description" : "",
														"digest" : "",
														"tags" : "",
														"style" : "",
														"subpatcher_template" : "",
														"assistshowspatchername" : 0,
														"boxes" : [ 															{
																"box" : 																{
																	"fontname" : "Arial",
																	"fontsize" : 12.0,
																	"id" : "obj-87",
																	"maxclass" : "newobj",
																	"numinlets" : 1,
																	"numoutlets" : 1,
																	"outlettype" : [ "" ],
																	"patching_rect" : [ 50.0, 100.0, 72.0, 20.0 ],
																	"text" : "loadmess 1"
																}

															}
, 															{
																"box" : 																{
																	"fontname" : "Arial",
																	"fontsize" : 12.0,
																	"id" : "obj-84",
																	"maxclass" : "message",
																	"numinlets" : 2,
																	"numoutlets" : 1,
																	"outlettype" : [ "" ],
																	"patching_rect" : [ 50.0, 210.0, 95.0, 18.0 ],
																	"text" : "0"
																}

															}
, 															{
																"box" : 																{
																	"fontname" : "Arial",
																	"fontsize" : 12.0,
																	"id" : "obj-80",
																	"maxclass" : "newobj",
																	"numinlets" : 1,
																	"numoutlets" : 1,
																	"outlettype" : [ "" ],
																	"patching_rect" : [ 50.0, 240.0, 120.0, 20.0 ],
																	"text" : "if $i1 == 1 then bang"
																}

															}
, 															{
																"box" : 																{
																	"fontname" : "Arial",
																	"fontsize" : 12.0,
																	"id" : "obj-79",
																	"maxclass" : "newobj",
																	"numinlets" : 1,
																	"numoutlets" : 2,
																	"outlettype" : [ "int", "bang" ],
																	"patching_rect" : [ 50.0, 160.0, 34.0, 20.0 ],
																	"text" : "t 0 b"
																}

															}
, 															{
																"box" : 																{
																	"fontname" : "Arial",
																	"fontsize" : 12.0,
																	"id" : "obj-69",
																	"maxclass" : "newobj",
																	"numinlets" : 1,
																	"numoutlets" : 2,
																	"outlettype" : [ "int", "" ],
																	"patching_rect" : [ 126.0, 100.0, 32.5, 20.0 ],
																	"text" : "t 1 l"
																}

															}
, 															{
																"box" : 																{
																	"fontname" : "Arial",
																	"fontsize" : 12.0,
																	"id" : "obj-67",
																	"maxclass" : "newobj",
																	"numinlets" : 2,
																	"numoutlets" : 1,
																	"outlettype" : [ "bang" ],
																	"patching_rect" : [ 50.0, 130.0, 65.0, 20.0 ],
																	"text" : "metro 200"
																}

															}
, 															{
																"box" : 																{
																	"fontname" : "Arial",
																	"fontsize" : 12.0,
																	"id" : "obj-63",
																	"linecount" : 13,
																	"maxclass" : "message",
																	"numinlets" : 2,
																	"numoutlets" : 1,
																	"outlettype" : [ "" ],
																	"patching_rect" : [ 50.0, 270.5, 411.0, 179.0 ],
																	"text" : "0 0 0. 0 1 0. 0 2 0. 0 3 0. 0 4 0. 0 5 0. 0 6 0. 0 7 0. 0 8 0. 0 9 0. 0 10 0. 0 11 0. 1 0 0. 1 1 0. 1 2 0. 1 3 0. 1 4 0. 1 5 0. 1 6 0. 1 7 0. 1 8 0. 1 9 0. 1 10 0. 1 11 0. 2 0 0. 2 1 0. 2 2 0. 2 3 0. 2 4 0. 2 5 0. 2 6 0. 2 7 0. 2 8 0. 2 9 0. 2 10 0. 2 11 0. 3 0 0. 3 1 0. 3 2 0. 3 3 0. 3 4 0. 3 5 0. 3 6 0. 3 7 0. 3 8 0. 3 9 0. 3 10 0. 3 11 0. 4 0 0. 4 1 0. 4 2 0. 4 3 0. 4 4 0. 4 5 0. 4 6 0. 4 7 0. 4 8 0. 4 9 0. 4 10 0. 4 11 0. 5 0 0. 5 1 0. 5 2 0. 5 3 0. 5 4 0. 5 5 0. 5 6 0. 5 7 0. 5 8 0. 5 9 0. 5 10 0. 5 11 0. 6 0 0. 6 1 0. 6 2 0. 6 3 0. 6 4 0. 6 5 0. 6 6 0. 6 7 0. 6 8 0. 6 9 0. 6 10 0. 6 11 0. 7 0 0. 7 1 0. 7 2 0. 7 3 0. 7 4 0. 7 5 0. 7 6 0. 7 7 0. 7 8 0. 7 9 0. 7 10 0. 7 11 0. 8 0 0. 8 1 0. 8 2 0. 8 3 0. 8 4 0. 8 5 0. 8 6 0. 8 7 0. 8 8 0. 8 9 0. 8 10 0. 8 11 0. 9 0 0. 9 1 0. 9 2 0. 9 3 0. 9 4 0. 9 5 0. 9 6 0. 9 7 0. 9 8 0. 9 9 0. 9 10 0. 9 11 0. 10 0 0. 10 1 0. 10 2 0. 10 3 0. 10 4 0. 10 5 0. 10 6 0. 10 7 0. 10 8 0. 10 9 0. 10 10 0. 10 11 0. 11 0 0. 11 1 0. 11 2 0. 11 3 0. 11 4 0. 11 5 0. 11 6 0. 11 7 0. 11 8 0. 11 9 0. 11 10 0. 11 11 0."
																}

															}
, 															{
																"box" : 																{
																	"comment" : "",
																	"id" : "obj-88",
																	"index" : 1,
																	"maxclass" : "inlet",
																	"numinlets" : 0,
																	"numoutlets" : 1,
																	"outlettype" : [ "" ],
																	"patching_rect" : [ 126.0, 40.0, 25.0, 25.0 ]
																}

															}
, 															{
																"box" : 																{
																	"comment" : "",
																	"id" : "obj-89",
																	"index" : 1,
																	"maxclass" : "outlet",
																	"numinlets" : 1,
																	"numoutlets" : 0,
																	"patching_rect" : [ 50.0, 509.5, 25.0, 25.0 ]
																}

															}
 ],
														"lines" : [ 															{
																"patchline" : 																{
																	"destination" : [ "obj-89", 0 ],
																	"source" : [ "obj-63", 0 ]
																}

															}
, 															{
																"patchline" : 																{
																	"destination" : [ "obj-79", 0 ],
																	"source" : [ "obj-67", 0 ]
																}

															}
, 															{
																"patchline" : 																{
																	"destination" : [ "obj-63", 1 ],
																	"source" : [ "obj-69", 1 ]
																}

															}
, 															{
																"patchline" : 																{
																	"destination" : [ "obj-84", 1 ],
																	"source" : [ "obj-69", 0 ]
																}

															}
, 															{
																"patchline" : 																{
																	"destination" : [ "obj-84", 0 ],
																	"source" : [ "obj-79", 1 ]
																}

															}
, 															{
																"patchline" : 																{
																	"destination" : [ "obj-84", 1 ],
																	"source" : [ "obj-79", 0 ]
																}

															}
, 															{
																"patchline" : 																{
																	"destination" : [ "obj-63", 0 ],
																	"source" : [ "obj-80", 0 ]
																}

															}
, 															{
																"patchline" : 																{
																	"destination" : [ "obj-80", 0 ],
																	"source" : [ "obj-84", 0 ]
																}

															}
, 															{
																"patchline" : 																{
																	"destination" : [ "obj-67", 0 ],
																	"source" : [ "obj-87", 0 ]
																}

															}
, 															{
																"patchline" : 																{
																	"destination" : [ "obj-69", 0 ],
																	"source" : [ "obj-88", 0 ]
																}

															}
 ]
													}
,
													"patching_rect" : [ 53.0, 83.0, 139.0, 22.0 ],
													"saved_object_attributes" : 													{
														"description" : "",
														"digest" : "",
														"globalpatchername" : "",
														"tags" : ""
													}
,
													"text" : "p throttle_state_updates"
												}

											}
, 											{
												"box" : 												{
													"fontname" : "Arial",
													"fontsize" : 12.0,
													"id" : "obj-145",
													"maxclass" : "newobj",
													"numinlets" : 1,
													"numoutlets" : 1,
													"outlettype" : [ "jit_matrix" ],
													"patching_rect" : [ 53.0, 143.0, 177.0, 22.0 ],
													"text" : "graphviz_string_to_jitter_image"
												}

											}
, 											{
												"box" : 												{
													"fontname" : "Arial",
													"fontsize" : 12.0,
													"id" : "obj-148",
													"maxclass" : "newobj",
													"numinlets" : 1,
													"numoutlets" : 1,
													"outlettype" : [ "" ],
													"patching_rect" : [ 53.0, 113.0, 118.0, 22.0 ],
													"saved_object_attributes" : 													{
														"filename" : "make_graph.js",
														"parameter_enable" : 0
													}
,
													"text" : "js make_graph.js 12"
												}

											}
, 											{
												"box" : 												{
													"comment" : "",
													"id" : "obj-149",
													"index" : 1,
													"maxclass" : "inlet",
													"numinlets" : 0,
													"numoutlets" : 1,
													"outlettype" : [ "" ],
													"patching_rect" : [ 53.0, 23.0, 25.0, 25.0 ]
												}

											}
, 											{
												"box" : 												{
													"comment" : "",
													"id" : "obj-152",
													"index" : 1,
													"maxclass" : "outlet",
													"numinlets" : 1,
													"numoutlets" : 0,
													"patching_rect" : [ 53.0, 223.0, 25.0, 25.0 ]
												}

											}
 ],
										"lines" : [ 											{
												"patchline" : 												{
													"destination" : [ "obj-148", 0 ],
													"source" : [ "obj-143", 0 ]
												}

											}
, 											{
												"patchline" : 												{
													"destination" : [ "obj-152", 0 ],
													"source" : [ "obj-145", 0 ]
												}

											}
, 											{
												"patchline" : 												{
													"destination" : [ "obj-153", 0 ],
													"source" : [ "obj-146", 0 ]
												}

											}
, 											{
												"patchline" : 												{
													"destination" : [ "obj-145", 0 ],
													"order" : 0,
													"source" : [ "obj-148", 0 ]
												}

											}
, 											{
												"patchline" : 												{
													"destination" : [ "obj-19", 1 ],
													"order" : 1,
													"source" : [ "obj-148", 0 ]
												}

											}
, 											{
												"patchline" : 												{
													"destination" : [ "obj-143", 0 ],
													"source" : [ "obj-149", 0 ]
												}

											}
, 											{
												"patchline" : 												{
													"destination" : [ "obj-155", 0 ],
													"source" : [ "obj-162", 0 ]
												}

											}
, 											{
												"patchline" : 												{
													"destination" : [ "obj-20", 2 ],
													"source" : [ "obj-18", 0 ]
												}

											}
, 											{
												"patchline" : 												{
													"destination" : [ "obj-1", 0 ],
													"source" : [ "obj-19", 0 ]
												}

											}
, 											{
												"patchline" : 												{
													"destination" : [ "obj-148", 0 ],
													"source" : [ "obj-20", 0 ]
												}

											}
, 											{
												"patchline" : 												{
													"destination" : [ "obj-18", 0 ],
													"source" : [ "obj-25", 0 ]
												}

											}
, 											{
												"patchline" : 												{
													"destination" : [ "obj-148", 0 ],
													"source" : [ "obj-3", 0 ]
												}

											}
 ]
									}
,
									"patching_rect" : [ 1009.749389999999948, -15.0, 66.0, 22.0 ],
									"saved_object_attributes" : 									{
										"description" : "",
										"digest" : "",
										"globalpatchername" : "",
										"tags" : ""
									}
,
									"text" : "p graphviz"
								}

							}
, 							{
								"box" : 								{
									"id" : "obj-147",
									"maxclass" : "jit.pwindow",
									"numinlets" : 1,
									"numoutlets" : 2,
									"outlettype" : [ "jit_matrix", "" ],
									"patching_rect" : [ 762.749084000000039, 77.0, 560.000610000000052, 560.0 ],
									"presentation" : 1,
									"presentation_rect" : [ 0.0, 30.0, 760.300964000000022, 760.0 ],
									"sync" : 1
								}

							}
, 							{
								"box" : 								{
									"comment" : "",
									"id" : "obj-32",
									"index" : 1,
									"maxclass" : "inlet",
									"numinlets" : 0,
									"numoutlets" : 1,
									"outlettype" : [ "" ],
									"patching_rect" : [ 1137.249389999999948, -53.5, 25.0, 25.0 ]
								}

							}
, 							{
								"box" : 								{
									"angle" : 0.0,
									"bgcolor" : [ 0.32549, 0.345098, 0.372549, 1.0 ],
									"id" : "obj-1",
									"maxclass" : "panel",
									"mode" : 0,
									"numinlets" : 1,
									"numoutlets" : 0,
									"patching_rect" : [ -26.0, -15.0, 1920.0, 1080.0 ],
									"presentation" : 1,
									"presentation_rect" : [ 0.0, 0.0, 1920.0, 1080.0 ],
									"proportion" : 0.39
								}

							}
 ],
						"lines" : [ 							{
								"patchline" : 								{
									"destination" : [ "obj-83", 0 ],
									"source" : [ "obj-103", 0 ]
								}

							}
, 							{
								"patchline" : 								{
									"destination" : [ "obj-12", 1 ],
									"source" : [ "obj-13", 0 ]
								}

							}
, 							{
								"patchline" : 								{
									"destination" : [ "obj-154", 0 ],
									"order" : 1,
									"source" : [ "obj-14", 0 ]
								}

							}
, 							{
								"patchline" : 								{
									"destination" : [ "obj-46", 0 ],
									"order" : 0,
									"source" : [ "obj-14", 0 ]
								}

							}
, 							{
								"patchline" : 								{
									"destination" : [ "obj-147", 0 ],
									"source" : [ "obj-154", 0 ]
								}

							}
, 							{
								"patchline" : 								{
									"destination" : [ "obj-18", 0 ],
									"source" : [ "obj-20", 0 ]
								}

							}
, 							{
								"patchline" : 								{
									"destination" : [ "obj-22", 0 ],
									"source" : [ "obj-21", 0 ]
								}

							}
, 							{
								"patchline" : 								{
									"destination" : [ "obj-20", 0 ],
									"source" : [ "obj-22", 0 ]
								}

							}
, 							{
								"patchline" : 								{
									"destination" : [ "obj-14", 0 ],
									"source" : [ "obj-32", 0 ]
								}

							}
, 							{
								"patchline" : 								{
									"destination" : [ "obj-31", 0 ],
									"source" : [ "obj-46", 0 ]
								}

							}
, 							{
								"patchline" : 								{
									"destination" : [ "obj-1", 0 ],
									"source" : [ "obj-6", 0 ]
								}

							}
 ]
					}
,
					"patching_rect" : [ 569.0, 302.0, 91.0, 31.0 ],
					"saved_object_attributes" : 					{
						"description" : "",
						"digest" : "",
						"globalpatchername" : "",
						"tags" : ""
					}
,
					"text" : "p display"
				}

			}
, 			{
				"box" : 				{
					"id" : "obj-25",
					"maxclass" : "newobj",
					"numinlets" : 13,
					"numoutlets" : 13,
					"outlettype" : [ "signal", "signal", "signal", "signal", "signal", "signal", "signal", "signal", "signal", "signal", "signal", "signal", "" ],
					"patching_rect" : [ 510.0, 261.0, 162.696810999999968, 22.0 ],
					"text" : "mymatrix~.maxpat"
				}

			}
 ],
		"lines" : [ 			{
				"patchline" : 				{
					"destination" : [ "obj-18", 1 ],
					"order" : 0,
					"source" : [ "obj-19", 0 ]
				}

			}
, 			{
				"patchline" : 				{
					"destination" : [ "obj-45", 0 ],
					"order" : 1,
					"source" : [ "obj-19", 0 ]
				}

			}
, 			{
				"patchline" : 				{
					"destination" : [ "obj-36", 0 ],
					"source" : [ "obj-25", 12 ]
				}

			}
, 			{
				"patchline" : 				{
					"destination" : [ "obj-10", 0 ],
					"source" : [ "obj-4", 0 ]
				}

			}
 ],
		"dependency_cache" : [ 			{
				"name" : "calculate_matrix_output_gains.js",
				"bootpath" : "~/repos/feedback/maxmsp/feedback-matrix",
				"patcherrelativepath" : "../feedback-matrix",
				"type" : "TEXT",
				"implicit" : 1
			}
, 			{
				"name" : "gain_slew.maxpat",
				"bootpath" : "~/repos/feedback/maxmsp/feedback-matrix",
				"patcherrelativepath" : "../feedback-matrix",
				"type" : "JSON",
				"implicit" : 1
			}
, 			{
				"name" : "graphviz_string_to_jitter_image.maxpat",
				"bootpath" : "~/repos/feedback/maxmsp/display",
				"patcherrelativepath" : "../display",
				"type" : "JSON",
				"implicit" : 1
			}
, 			{
				"name" : "ignore-out-of-bounds-matrix-cells.maxpat",
				"bootpath" : "~/repos/feedback/maxmsp/feedback-matrix",
				"patcherrelativepath" : "../feedback-matrix",
				"type" : "JSON",
				"implicit" : 1
			}
, 			{
				"name" : "key-nicenames.maxpat",
				"bootpath" : "~/Documents/max_path/enabled/matt-max/devices",
				"patcherrelativepath" : "../../../../Documents/max_path/enabled/matt-max/devices",
				"type" : "JSON",
				"implicit" : 1
			}
, 			{
				"name" : "make_graph.js",
				"bootpath" : "~/repos/feedback/maxmsp/display",
				"patcherrelativepath" : "../display",
				"type" : "TEXT",
				"implicit" : 1
			}
, 			{
				"name" : "matrix-presets.maxpat",
				"bootpath" : "~/repos/feedback/maxmsp/feedback-matrix",
				"patcherrelativepath" : "../feedback-matrix",
				"type" : "JSON",
				"implicit" : 1
			}
, 			{
				"name" : "multi-matrixctrl.maxpat",
				"bootpath" : "~/repos/feedback/maxmsp/feedback-matrix",
				"patcherrelativepath" : "../feedback-matrix",
				"type" : "JSON",
				"implicit" : 1
			}
, 			{
				"name" : "mymatrix~.maxpat",
				"bootpath" : "~/repos/feedback/maxmsp/feedback-matrix",
				"patcherrelativepath" : "../feedback-matrix",
				"type" : "JSON",
				"implicit" : 1
			}
, 			{
				"name" : "printit.mxo",
				"type" : "iLaX"
			}
, 			{
				"name" : "select_submatrix.js",
				"bootpath" : "~/repos/feedback/maxmsp/feedback-matrix",
				"patcherrelativepath" : "../feedback-matrix",
				"type" : "TEXT",
				"implicit" : 1
			}
, 			{
				"name" : "shell.mxo",
				"type" : "iLaX"
			}
 ],
		"autosave" : 0
	}

}
