{
	"patcher" : 	{
		"fileversion" : 1,
		"appversion" : 		{
			"major" : 6,
			"minor" : 1,
			"revision" : 7,
			"architecture" : "x86"
		}
,
		"rect" : [ 1442.0, 60.0, 399.0, 944.0 ],
		"bglocked" : 0,
		"openinpresentation" : 0,
		"default_fontsize" : 12.0,
		"default_fontface" : 0,
		"default_fontname" : "Arial",
		"gridonopen" : 0,
		"gridsize" : [ 15.0, 15.0 ],
		"gridsnaponopen" : 0,
		"statusbarvisible" : 2,
		"toolbarvisible" : 1,
		"boxanimatetime" : 200,
		"imprint" : 0,
		"enablehscroll" : 1,
		"enablevscroll" : 1,
		"devicewidth" : 0.0,
		"description" : "",
		"digest" : "",
		"tags" : "",
		"boxes" : [ 			{
				"box" : 				{
					"fontname" : "Arial",
					"fontsize" : 12.0,
					"id" : "obj-3",
					"maxclass" : "newobj",
					"numinlets" : 1,
					"numoutlets" : 12,
					"outlettype" : [ "signal", "signal", "signal", "signal", "signal", "signal", "signal", "signal", "signal", "signal", "signal", "signal" ],
					"patching_rect" : [ 29.5, 378.0, 176.0, 20.0 ],
					"text" : "adc~ 1 2 3 4 5 6 7 8 9 10 11 12"
				}

			}
, 			{
				"box" : 				{
					"fontname" : "Arial",
					"fontsize" : 36.0,
					"frgb" : 0.0,
					"id" : "obj-52",
					"maxclass" : "comment",
					"numinlets" : 1,
					"numoutlets" : 0,
					"patching_rect" : [ 732.999146, 224.0, 51.0, 47.0 ],
					"presentation" : 1,
					"presentation_rect" : [ -4.500244, 860.0, 51.0, 47.0 ],
					"text" : "12"
				}

			}
, 			{
				"box" : 				{
					"fontname" : "Arial",
					"fontsize" : 36.0,
					"frgb" : 0.0,
					"id" : "obj-13",
					"maxclass" : "comment",
					"numinlets" : 1,
					"numoutlets" : 0,
					"patching_rect" : [ 674.999268, 224.0, 48.0, 47.0 ],
					"presentation" : 1,
					"presentation_rect" : [ -4.500244, 785.0, 48.0, 47.0 ],
					"text" : "11"
				}

			}
, 			{
				"box" : 				{
					"fontname" : "Arial",
					"fontsize" : 36.0,
					"frgb" : 0.0,
					"id" : "obj-14",
					"maxclass" : "comment",
					"numinlets" : 1,
					"numoutlets" : 0,
					"patching_rect" : [ 613.99939, 224.0, 51.0, 47.0 ],
					"presentation" : 1,
					"presentation_rect" : [ -6.000244, 710.0, 51.0, 47.0 ],
					"text" : "10"
				}

			}
, 			{
				"box" : 				{
					"fontname" : "Arial",
					"fontsize" : 36.0,
					"frgb" : 0.0,
					"id" : "obj-16",
					"maxclass" : "comment",
					"numinlets" : 1,
					"numoutlets" : 0,
					"patching_rect" : [ 558.999512, 224.0, 39.0, 47.0 ],
					"presentation" : 1,
					"presentation_rect" : [ 5.999756, 635.0, 39.0, 47.0 ],
					"text" : "9"
				}

			}
, 			{
				"box" : 				{
					"fontname" : "Arial",
					"fontsize" : 36.0,
					"frgb" : 0.0,
					"id" : "obj-19",
					"maxclass" : "comment",
					"numinlets" : 1,
					"numoutlets" : 0,
					"patching_rect" : [ 499.999573, 224.0, 39.0, 47.0 ],
					"presentation" : 1,
					"presentation_rect" : [ 5.999756, 560.0, 39.0, 47.0 ],
					"text" : "8"
				}

			}
, 			{
				"box" : 				{
					"fontname" : "Arial",
					"fontsize" : 36.0,
					"frgb" : 0.0,
					"id" : "obj-20",
					"maxclass" : "comment",
					"numinlets" : 1,
					"numoutlets" : 0,
					"patching_rect" : [ 439.999634, 224.0, 39.0, 47.0 ],
					"presentation" : 1,
					"presentation_rect" : [ 5.999756, 485.0, 39.0, 47.0 ],
					"text" : "7"
				}

			}
, 			{
				"box" : 				{
					"fontname" : "Arial",
					"fontsize" : 36.0,
					"frgb" : 0.0,
					"id" : "obj-21",
					"maxclass" : "comment",
					"numinlets" : 1,
					"numoutlets" : 0,
					"patching_rect" : [ 378.999695, 224.0, 39.0, 47.0 ],
					"presentation" : 1,
					"presentation_rect" : [ 5.999756, 410.0, 39.0, 47.0 ],
					"text" : "6"
				}

			}
, 			{
				"box" : 				{
					"fontname" : "Arial",
					"fontsize" : 36.0,
					"frgb" : 0.0,
					"id" : "obj-22",
					"maxclass" : "comment",
					"numinlets" : 1,
					"numoutlets" : 0,
					"patching_rect" : [ 317.999756, 224.0, 39.0, 47.0 ],
					"presentation" : 1,
					"presentation_rect" : [ 5.999756, 335.0, 39.0, 47.0 ],
					"text" : "5"
				}

			}
, 			{
				"box" : 				{
					"fontname" : "Arial",
					"fontsize" : 36.0,
					"frgb" : 0.0,
					"id" : "obj-26",
					"maxclass" : "comment",
					"numinlets" : 1,
					"numoutlets" : 0,
					"patching_rect" : [ 258.999817, 224.0, 39.0, 47.0 ],
					"presentation" : 1,
					"presentation_rect" : [ 5.999756, 260.0, 39.0, 47.0 ],
					"text" : "4"
				}

			}
, 			{
				"box" : 				{
					"fontname" : "Arial",
					"fontsize" : 36.0,
					"frgb" : 0.0,
					"id" : "obj-27",
					"maxclass" : "comment",
					"numinlets" : 1,
					"numoutlets" : 0,
					"patching_rect" : [ 198.818115, 224.0, 39.0, 47.0 ],
					"presentation" : 1,
					"presentation_rect" : [ 5.999756, 185.0, 39.0, 47.0 ],
					"text" : "3"
				}

			}
, 			{
				"box" : 				{
					"fontname" : "Arial",
					"fontsize" : 36.0,
					"frgb" : 0.0,
					"id" : "obj-54",
					"maxclass" : "comment",
					"numinlets" : 1,
					"numoutlets" : 0,
					"patching_rect" : [ 139.999939, 224.0, 39.0, 47.0 ],
					"presentation" : 1,
					"presentation_rect" : [ 5.999756, 110.0, 39.0, 47.0 ],
					"text" : "2"
				}

			}
, 			{
				"box" : 				{
					"fontname" : "Arial",
					"fontsize" : 36.0,
					"frgb" : 0.0,
					"id" : "obj-58",
					"maxclass" : "comment",
					"numinlets" : 1,
					"numoutlets" : 0,
					"patching_rect" : [ 77.0, 224.0, 39.0, 47.0 ],
					"presentation" : 1,
					"presentation_rect" : [ 5.999756, 35.0, 39.0, 47.0 ],
					"text" : "1"
				}

			}
, 			{
				"box" : 				{
					"id" : "obj-75",
					"interval" : 10,
					"logfreq" : 1,
					"maxclass" : "spectroscope~",
					"numinlets" : 2,
					"numoutlets" : 1,
					"outlettype" : [ "" ],
					"patching_rect" : [ 15.0, 870.0, 690.0, 33.0 ],
					"presentation" : 1,
					"presentation_rect" : [ 38.0, 848.0, 346.0, 71.0 ]
				}

			}
, 			{
				"box" : 				{
					"id" : "obj-76",
					"interval" : 10,
					"logfreq" : 1,
					"maxclass" : "spectroscope~",
					"numinlets" : 2,
					"numoutlets" : 1,
					"outlettype" : [ "" ],
					"patching_rect" : [ 15.0, 795.0, 690.0, 33.0 ],
					"presentation" : 1,
					"presentation_rect" : [ 38.0, 773.0, 346.0, 71.0 ]
				}

			}
, 			{
				"box" : 				{
					"id" : "obj-77",
					"interval" : 10,
					"logfreq" : 1,
					"maxclass" : "spectroscope~",
					"numinlets" : 2,
					"numoutlets" : 1,
					"outlettype" : [ "" ],
					"patching_rect" : [ 15.0, 720.0, 690.0, 33.0 ],
					"presentation" : 1,
					"presentation_rect" : [ 38.0, 698.0, 346.0, 71.0 ]
				}

			}
, 			{
				"box" : 				{
					"id" : "obj-78",
					"interval" : 10,
					"logfreq" : 1,
					"maxclass" : "spectroscope~",
					"numinlets" : 2,
					"numoutlets" : 1,
					"outlettype" : [ "" ],
					"patching_rect" : [ 15.0, 645.0, 690.0, 33.0 ],
					"presentation" : 1,
					"presentation_rect" : [ 38.0, 623.0, 346.0, 71.0 ]
				}

			}
, 			{
				"box" : 				{
					"id" : "obj-79",
					"interval" : 10,
					"logfreq" : 1,
					"maxclass" : "spectroscope~",
					"numinlets" : 2,
					"numoutlets" : 1,
					"outlettype" : [ "" ],
					"patching_rect" : [ 15.0, 570.0, 690.0, 33.0 ],
					"presentation" : 1,
					"presentation_rect" : [ 38.0, 548.0, 346.0, 71.0 ]
				}

			}
, 			{
				"box" : 				{
					"id" : "obj-80",
					"interval" : 10,
					"logfreq" : 1,
					"maxclass" : "spectroscope~",
					"numinlets" : 2,
					"numoutlets" : 1,
					"outlettype" : [ "" ],
					"patching_rect" : [ 15.0, 495.0, 690.0, 33.0 ],
					"presentation" : 1,
					"presentation_rect" : [ 38.0, 473.0, 346.0, 71.0 ]
				}

			}
, 			{
				"box" : 				{
					"id" : "obj-73",
					"interval" : 10,
					"logfreq" : 1,
					"maxclass" : "spectroscope~",
					"numinlets" : 2,
					"numoutlets" : 1,
					"outlettype" : [ "" ],
					"patching_rect" : [ 15.0, 420.0, 690.0, 33.0 ],
					"presentation" : 1,
					"presentation_rect" : [ 38.0, 398.0, 346.0, 71.0 ]
				}

			}
, 			{
				"box" : 				{
					"id" : "obj-74",
					"interval" : 10,
					"logfreq" : 1,
					"maxclass" : "spectroscope~",
					"numinlets" : 2,
					"numoutlets" : 1,
					"outlettype" : [ "" ],
					"patching_rect" : [ 15.0, 345.0, 690.0, 33.0 ],
					"presentation" : 1,
					"presentation_rect" : [ 38.0, 323.0, 346.0, 71.0 ]
				}

			}
, 			{
				"box" : 				{
					"id" : "obj-72",
					"interval" : 10,
					"logfreq" : 1,
					"maxclass" : "spectroscope~",
					"numinlets" : 2,
					"numoutlets" : 1,
					"outlettype" : [ "" ],
					"patching_rect" : [ 15.0, 270.0, 690.0, 33.0 ],
					"presentation" : 1,
					"presentation_rect" : [ 38.0, 248.0, 346.0, 71.0 ]
				}

			}
, 			{
				"box" : 				{
					"id" : "obj-71",
					"interval" : 10,
					"logfreq" : 1,
					"maxclass" : "spectroscope~",
					"numinlets" : 2,
					"numoutlets" : 1,
					"outlettype" : [ "" ],
					"patching_rect" : [ 15.0, 195.0, 690.0, 33.0 ],
					"presentation" : 1,
					"presentation_rect" : [ 38.0, 173.0, 346.0, 71.0 ]
				}

			}
, 			{
				"box" : 				{
					"id" : "obj-70",
					"interval" : 10,
					"logfreq" : 1,
					"maxclass" : "spectroscope~",
					"numinlets" : 2,
					"numoutlets" : 1,
					"outlettype" : [ "" ],
					"patching_rect" : [ 15.0, 120.0, 690.0, 33.0 ],
					"presentation" : 1,
					"presentation_rect" : [ 38.0, 98.0, 346.0, 71.0 ]
				}

			}
, 			{
				"box" : 				{
					"id" : "obj-5",
					"interval" : 10,
					"logfreq" : 1,
					"maxclass" : "spectroscope~",
					"numinlets" : 2,
					"numoutlets" : 1,
					"outlettype" : [ "" ],
					"patching_rect" : [ 15.0, 45.0, 690.0, 33.0 ],
					"presentation" : 1,
					"presentation_rect" : [ 38.0, 23.0, 346.0, 71.0 ]
				}

			}
 ],
		"lines" : [ 			{
				"patchline" : 				{
					"destination" : [ "obj-5", 0 ],
					"disabled" : 0,
					"hidden" : 0,
					"source" : [ "obj-3", 0 ]
				}

			}
, 			{
				"patchline" : 				{
					"destination" : [ "obj-70", 0 ],
					"disabled" : 0,
					"hidden" : 0,
					"source" : [ "obj-3", 1 ]
				}

			}
, 			{
				"patchline" : 				{
					"destination" : [ "obj-71", 0 ],
					"disabled" : 0,
					"hidden" : 0,
					"source" : [ "obj-3", 2 ]
				}

			}
, 			{
				"patchline" : 				{
					"destination" : [ "obj-72", 0 ],
					"disabled" : 0,
					"hidden" : 0,
					"source" : [ "obj-3", 3 ]
				}

			}
, 			{
				"patchline" : 				{
					"destination" : [ "obj-73", 0 ],
					"disabled" : 0,
					"hidden" : 0,
					"source" : [ "obj-3", 5 ]
				}

			}
, 			{
				"patchline" : 				{
					"destination" : [ "obj-74", 0 ],
					"disabled" : 0,
					"hidden" : 0,
					"source" : [ "obj-3", 4 ]
				}

			}
, 			{
				"patchline" : 				{
					"destination" : [ "obj-75", 0 ],
					"disabled" : 0,
					"hidden" : 0,
					"source" : [ "obj-3", 11 ]
				}

			}
, 			{
				"patchline" : 				{
					"destination" : [ "obj-76", 0 ],
					"disabled" : 0,
					"hidden" : 0,
					"source" : [ "obj-3", 10 ]
				}

			}
, 			{
				"patchline" : 				{
					"destination" : [ "obj-77", 0 ],
					"disabled" : 0,
					"hidden" : 0,
					"source" : [ "obj-3", 9 ]
				}

			}
, 			{
				"patchline" : 				{
					"destination" : [ "obj-78", 0 ],
					"disabled" : 0,
					"hidden" : 0,
					"source" : [ "obj-3", 8 ]
				}

			}
, 			{
				"patchline" : 				{
					"destination" : [ "obj-79", 0 ],
					"disabled" : 0,
					"hidden" : 0,
					"source" : [ "obj-3", 7 ]
				}

			}
, 			{
				"patchline" : 				{
					"destination" : [ "obj-80", 0 ],
					"disabled" : 0,
					"hidden" : 0,
					"source" : [ "obj-3", 6 ]
				}

			}
 ],
		"dependency_cache" : [  ]
	}

}
